<svg id="svg" version="1.1" xmlns="http://www.w3.org/2000/svg" xmlns:xlink="http://www.w3.org/1999/xlink" width="400" height="400" viewBox="0, 0, 400,400"><g id="svgg"><path id="path0" d="M215.600 172.800 C 215.600 173.020,215.060 173.200,214.400 173.200 C 213.740 173.200,213.200 173.380,213.200 173.600 C 213.200 173.820,212.852 174.000,212.427 174.000 C 212.002 174.000,211.540 174.360,211.400 174.800 C 211.254 175.260,210.795 175.600,210.320 175.600 C 208.518 175.600,205.868 178.988,206.403 180.609 C 206.804 181.824,206.778 182.161,206.239 182.757 C 205.888 183.145,205.600 183.579,205.600 183.721 C 205.600 183.862,205.152 184.928,204.604 186.089 C 202.651 190.227,202.651 190.237,202.515 225.057 C 202.404 253.500,202.307 257.979,201.793 258.406 C 201.069 259.006,200.881 300.956,201.600 301.400 C 201.820 301.536,202.000 302.074,202.000 302.597 C 202.000 303.195,202.296 303.640,202.800 303.800 C 203.311 303.962,203.600 304.405,203.600 305.027 C 203.600 305.562,203.780 306.000,204.000 306.000 C 204.220 306.000,204.400 306.328,204.400 306.728 C 204.400 307.128,204.805 307.813,205.300 308.250 C 205.795 308.687,206.558 309.530,206.995 310.122 C 207.432 310.715,208.107 311.200,208.495 311.200 C 208.883 311.200,209.200 311.476,209.200 311.813 C 209.200 312.149,209.515 312.529,209.900 312.655 C 211.535 313.193,213.124 314.027,213.594 314.593 C 213.871 314.927,214.425 315.200,214.825 315.200 C 215.225 315.200,215.664 315.380,215.800 315.600 C 215.962 315.861,227.396 316.000,248.800 316.000 C 270.204 316.000,281.638 315.861,281.800 315.600 C 281.936 315.380,282.369 315.200,282.762 315.200 C 283.155 315.200,283.802 314.840,284.200 314.400 C 284.598 313.960,285.256 313.600,285.662 313.600 C 286.068 313.600,286.400 313.420,286.400 313.200 C 286.400 312.980,286.758 312.800,287.197 312.800 C 287.635 312.800,288.218 312.440,288.493 312.000 C 288.768 311.560,289.127 311.200,289.290 311.200 C 289.912 311.200,293.200 307.451,293.200 306.742 C 293.200 306.334,293.380 306.000,293.600 306.000 C 293.820 306.000,294.000 305.562,294.000 305.027 C 294.000 304.405,294.289 303.962,294.800 303.800 C 295.304 303.640,295.600 303.195,295.600 302.597 C 295.600 302.074,295.780 301.536,296.000 301.400 C 296.264 301.237,296.400 281.670,296.400 244.000 C 296.400 206.330,296.264 186.763,296.000 186.600 C 295.780 186.464,295.600 185.897,295.600 185.339 C 295.600 184.662,295.335 184.256,294.800 184.116 C 294.355 183.999,294.000 183.570,294.000 183.148 C 294.000 182.185,293.310 180.991,291.851 179.430 C 291.219 178.753,290.434 177.795,290.105 177.300 C 289.777 176.805,289.259 176.400,288.954 176.400 C 288.649 176.400,288.400 176.220,288.400 176.000 C 288.400 175.780,287.962 175.600,287.427 175.600 C 286.805 175.600,286.362 175.311,286.200 174.800 C 286.060 174.360,285.598 174.000,285.173 174.000 C 284.748 174.000,284.400 173.820,284.400 173.600 C 284.400 173.380,283.961 173.200,283.424 173.200 C 282.887 173.200,282.336 173.020,282.200 172.800 C 282.038 172.539,270.463 172.400,248.776 172.400 C 226.925 172.400,215.600 172.537,215.600 172.800 M286.800 182.753 L 288.400 184.306 288.400 199.883 C 288.400 217.047,288.634 215.380,285.879 217.811 L 284.759 218.800 249.356 218.800 L 213.953 218.800 212.077 217.027 L 210.200 215.253 210.200 199.845 L 210.200 184.437 211.885 182.819 L 213.569 181.200 249.384 181.200 L 285.199 181.200 286.800 182.753 M223.300 227.457 C 227.136 228.091,230.135 233.033,229.152 237.100 C 228.720 238.887,226.739 241.600,225.866 241.600 C 225.658 241.600,225.269 241.899,225.002 242.266 C 224.069 243.541,218.884 243.155,216.816 241.658 C 209.694 236.499,214.487 226.000,223.300 227.457 M242.500 227.621 C 243.325 227.850,244.000 228.209,244.000 228.419 C 244.000 228.628,244.257 228.800,244.571 228.800 C 248.772 228.800,249.024 239.943,244.858 241.504 C 244.496 241.640,244.000 242.017,243.757 242.342 C 242.904 243.480,237.712 243.120,235.696 241.783 C 228.112 236.753,233.676 225.171,242.500 227.621 M260.993 227.588 C 261.869 227.791,262.649 228.147,262.726 228.379 C 262.803 228.610,263.107 228.800,263.400 228.800 C 264.964 228.800,266.600 232.072,266.600 235.200 C 266.600 238.328,264.964 241.600,263.400 241.600 C 263.107 241.600,262.803 241.790,262.726 242.021 C 262.221 243.537,256.704 243.250,254.239 241.580 C 246.960 236.648,252.305 225.574,260.993 227.588 M281.230 228.227 C 281.578 228.542,282.059 228.800,282.298 228.800 C 283.774 228.800,285.400 232.155,285.400 235.200 C 285.400 238.245,283.774 241.600,282.298 241.600 C 282.059 241.600,281.535 241.896,281.135 242.259 C 280.610 242.734,279.655 242.917,277.704 242.916 C 268.351 242.909,266.590 230.037,275.600 227.535 C 277.045 227.133,280.489 227.557,281.230 228.227 M223.717 256.395 C 225.462 256.403,228.591 259.547,229.179 261.883 C 231.300 270.304,219.877 275.345,214.741 268.256 C 212.082 264.585,214.176 257.460,218.165 256.603 C 220.045 256.200,221.041 256.100,221.800 256.241 C 222.240 256.322,223.103 256.392,223.717 256.395 M242.517 256.395 C 244.311 256.403,247.349 259.506,247.897 261.888 C 249.928 270.710,237.961 275.503,233.188 267.780 C 229.935 262.518,234.613 255.244,240.600 256.254 C 241.040 256.328,241.903 256.392,242.517 256.395 M261.261 256.395 C 263.008 256.404,265.972 259.395,266.569 261.752 C 268.773 270.447,257.653 275.385,252.141 268.159 C 248.373 263.217,253.251 255.216,259.400 256.254 C 259.840 256.328,260.678 256.392,261.261 256.395 M282.374 257.569 C 285.944 260.367,286.718 265.549,284.029 268.645 C 279.534 273.821,271.049 271.916,269.837 265.458 C 268.518 258.424,276.808 253.207,282.374 257.569 M225.326 285.651 C 228.220 287.143,230.039 291.286,229.188 294.445 C 227.373 301.185,218.038 302.362,214.225 296.332 C 212.476 293.566,213.630 288.496,216.528 286.211 C 217.950 285.090,223.549 284.734,225.326 285.651 M244.238 285.714 C 248.780 288.346,249.431 294.577,245.546 298.212 L 243.634 300.000 240.155 300.000 C 232.165 300.000,229.066 291.147,235.328 286.211 C 236.773 285.073,242.573 284.749,244.238 285.714 M263.038 285.714 C 267.506 288.303,268.162 294.642,264.333 298.224 L 262.434 300.000 258.979 300.000 C 251.404 300.000,248.002 292.360,253.243 287.119 L 255.162 285.200 258.681 285.214 C 260.688 285.222,262.560 285.437,263.038 285.714 M281.641 285.622 C 286.178 288.050,286.951 294.412,283.157 298.100 L 281.203 300.000 277.582 300.000 L 273.962 300.000 272.038 298.076 C 268.773 294.811,268.753 290.491,271.988 287.135 L 273.853 285.200 277.353 285.200 C 279.278 285.200,281.207 285.390,281.641 285.622 " stroke="none" fill="#2e2e2e" fill-rule="evenodd"></path><path id="path1" d="M162.500 80.488 C 161.606 80.919,161.600 80.980,161.600 90.028 C 161.600 101.120,161.823 100.400,158.381 100.400 C 156.877 100.400,155.536 100.580,155.400 100.800 C 155.264 101.020,154.355 101.200,153.380 101.200 C 152.040 101.200,151.485 101.395,151.107 102.000 C 150.777 102.529,150.174 102.800,149.327 102.800 C 148.623 102.800,147.936 102.980,147.800 103.200 C 147.664 103.420,147.023 103.600,146.376 103.600 C 145.729 103.600,145.200 103.780,145.200 104.000 C 145.200 104.220,144.964 104.400,144.675 104.400 C 144.387 104.400,143.764 104.760,143.292 105.200 C 142.820 105.640,142.104 106.000,141.702 106.000 C 141.299 106.000,140.347 106.533,139.585 107.184 C 138.823 107.835,137.975 108.375,137.700 108.384 C 137.425 108.393,137.200 108.580,137.200 108.800 C 137.200 109.020,137.022 109.200,136.803 109.200 C 136.112 109.200,131.450 112.935,129.876 114.749 C 129.614 115.050,128.950 115.770,128.400 116.349 C 127.850 116.927,127.130 117.940,126.801 118.600 C 126.471 119.260,125.988 119.937,125.728 120.105 C 125.153 120.475,124.000 122.715,124.000 123.461 C 124.000 123.758,123.820 124.000,123.600 124.000 C 123.380 124.000,123.200 124.332,123.200 124.738 C 123.200 125.144,122.840 125.802,122.400 126.200 C 121.960 126.598,121.600 127.425,121.600 128.038 C 121.600 128.651,121.420 129.264,121.200 129.400 C 120.980 129.536,120.800 130.258,120.800 131.004 C 120.800 131.879,120.552 132.499,120.101 132.751 C 119.024 133.354,117.827 147.587,118.774 148.534 C 119.008 148.768,119.200 150.094,119.200 151.480 C 119.200 153.467,119.369 154.169,120.000 154.800 C 120.490 155.290,120.800 156.133,120.800 156.976 C 120.800 157.733,120.980 158.464,121.200 158.600 C 121.420 158.736,121.600 159.377,121.600 160.024 C 121.600 160.933,121.781 161.200,122.400 161.200 C 123.022 161.200,123.200 161.467,123.200 162.400 C 123.200 163.060,123.380 163.600,123.600 163.600 C 123.820 163.600,124.000 163.958,124.000 164.395 C 124.000 165.330,125.155 166.800,125.889 166.800 C 126.170 166.800,126.400 167.235,126.400 167.768 C 126.400 168.674,127.352 169.877,131.727 174.500 C 132.507 175.325,133.236 176.000,133.346 176.000 C 133.457 176.000,134.471 176.900,135.600 178.000 C 136.924 179.290,137.999 180.000,138.627 180.000 C 139.262 180.000,139.600 180.228,139.600 180.656 C 139.600 181.503,140.753 182.371,141.900 182.387 C 142.395 182.394,142.800 182.649,142.800 182.954 C 142.800 183.596,144.486 184.800,145.386 184.800 C 145.724 184.800,146.000 184.980,146.000 185.200 C 146.000 185.420,146.407 185.600,146.904 185.600 C 147.401 185.600,148.032 185.960,148.307 186.400 C 148.582 186.840,149.155 187.200,149.580 187.200 C 150.005 187.200,150.464 187.380,150.600 187.600 C 150.736 187.820,151.222 188.000,151.680 188.000 C 152.137 188.000,152.712 188.269,152.956 188.599 C 153.200 188.928,154.480 189.572,155.800 190.031 C 157.120 190.489,158.371 191.030,158.580 191.232 C 158.789 191.434,159.297 191.600,159.709 191.600 C 161.613 191.600,161.600 191.453,161.600 212.571 C 161.600 229.930,161.525 232.400,161.000 232.400 C 160.670 232.400,160.400 232.220,160.400 232.000 C 160.400 231.780,160.055 231.600,159.633 231.600 C 159.212 231.600,158.807 231.465,158.733 231.300 C 158.571 230.935,156.600 229.593,155.100 228.827 C 154.495 228.518,154.000 228.025,154.000 227.732 C 154.000 227.440,153.640 227.200,153.200 227.200 C 152.760 227.200,152.400 227.056,152.400 226.879 C 152.400 226.703,151.635 225.751,150.700 224.763 C 149.765 223.775,148.805 222.614,148.567 222.183 C 148.329 221.753,147.744 221.222,147.267 221.005 C 146.790 220.788,146.400 220.321,146.400 219.967 C 146.400 219.017,145.197 216.774,144.556 216.528 C 144.250 216.410,144.000 215.984,144.000 215.581 C 144.000 215.177,143.820 214.736,143.600 214.600 C 143.380 214.464,143.200 213.924,143.200 213.400 C 143.200 212.876,143.020 212.336,142.800 212.200 C 142.580 212.064,142.387 211.558,142.371 211.076 C 142.304 209.081,141.068 207.808,139.070 207.678 C 137.948 207.605,137.200 207.725,137.200 207.978 C 137.200 208.210,136.672 208.400,136.027 208.400 C 135.232 208.400,134.777 208.641,134.616 209.149 C 134.447 209.683,133.879 209.955,132.641 210.094 C 131.685 210.202,130.312 210.585,129.590 210.945 C 128.868 211.305,128.057 211.600,127.788 211.600 C 127.518 211.600,127.074 211.870,126.800 212.200 C 126.526 212.530,125.885 212.800,125.375 212.800 C 124.865 212.800,124.336 212.980,124.200 213.200 C 124.064 213.420,123.513 213.600,122.976 213.600 C 122.439 213.600,121.640 213.960,121.200 214.400 C 120.760 214.840,120.051 215.200,119.624 215.200 C 119.197 215.200,118.736 215.380,118.600 215.600 C 118.464 215.820,117.997 216.000,117.563 216.000 C 117.129 216.000,115.879 216.453,114.787 217.007 L 112.800 218.013 112.800 220.383 C 112.800 221.686,112.980 222.864,113.200 223.000 C 113.420 223.136,113.600 223.777,113.600 224.424 C 113.600 225.071,113.960 225.960,114.400 226.400 C 114.840 226.840,115.200 227.545,115.200 227.967 C 115.200 229.065,116.694 232.400,117.186 232.400 C 117.414 232.400,117.600 232.672,117.600 233.005 C 117.600 233.338,117.765 233.923,117.966 234.305 C 118.168 234.687,118.631 235.686,118.997 236.524 C 119.362 237.362,119.917 238.147,120.230 238.267 C 120.544 238.387,120.800 238.717,120.800 239.000 C 120.800 239.284,121.340 240.093,122.000 240.800 C 122.660 241.507,123.200 242.251,123.200 242.455 C 123.200 242.982,132.108 252.000,132.629 252.000 C 132.866 252.000,133.494 252.462,134.024 253.026 C 134.554 253.590,135.621 254.345,136.394 254.704 C 137.167 255.063,137.927 255.560,138.081 255.809 C 138.236 256.058,139.136 256.602,140.081 257.019 C 141.027 257.436,141.944 258.007,142.120 258.289 C 142.296 258.570,142.780 258.800,143.196 258.800 C 143.612 258.800,144.064 258.980,144.200 259.200 C 144.336 259.420,144.876 259.600,145.400 259.600 C 145.924 259.600,146.464 259.780,146.600 260.000 C 146.736 260.220,147.393 260.400,148.061 260.400 C 148.938 260.400,149.333 260.622,149.484 261.200 C 149.648 261.827,150.030 262.000,151.247 262.000 C 152.101 262.000,152.800 262.180,152.800 262.400 C 152.800 262.620,153.660 262.800,154.712 262.800 C 156.165 262.800,156.762 262.992,157.200 263.600 C 157.638 264.207,158.235 264.400,159.681 264.400 L 161.586 264.400 161.693 274.100 L 161.800 283.800 173.200 283.907 C 183.563 284.004,184.646 283.951,185.100 283.330 C 185.465 282.831,185.600 280.191,185.600 273.524 L 185.600 264.400 186.604 264.400 C 187.156 264.400,187.916 264.040,188.293 263.600 C 188.780 263.031,189.473 262.800,190.689 262.800 C 191.630 262.800,192.400 262.620,192.400 262.400 C 192.400 262.180,193.118 262.000,193.997 262.000 C 195.160 262.000,195.729 261.783,196.093 261.200 C 196.423 260.671,197.026 260.400,197.873 260.400 C 198.577 260.400,199.264 260.220,199.400 260.000 C 199.536 259.780,199.997 259.600,200.424 259.600 C 200.851 259.600,201.238 259.555,201.285 259.500 C 201.332 259.445,201.470 243.740,201.593 224.600 C 201.840 186.014,201.631 188.962,204.499 183.630 C 205.190 182.345,205.594 181.080,205.489 180.530 C 205.390 180.013,205.508 179.593,205.755 179.583 C 206.000 179.574,205.075 179.030,203.700 178.375 C 202.325 177.719,201.200 177.007,201.200 176.791 C 201.200 176.576,200.851 176.400,200.424 176.400 C 199.997 176.400,199.536 176.220,199.400 176.000 C 199.264 175.780,198.757 175.600,198.273 175.600 C 197.789 175.600,197.168 175.240,196.893 174.800 C 196.618 174.360,196.035 174.000,195.597 174.000 C 195.158 174.000,194.800 173.820,194.800 173.600 C 194.800 173.380,194.260 173.200,193.600 173.200 C 192.940 173.200,192.400 173.020,192.400 172.800 C 192.400 172.580,191.993 172.400,191.496 172.400 C 190.999 172.400,190.368 172.040,190.093 171.600 C 189.816 171.156,189.160 170.800,188.620 170.800 C 188.085 170.800,187.536 170.620,187.400 170.400 C 187.264 170.180,186.803 170.000,186.376 170.000 C 185.619 170.000,185.600 169.545,185.600 151.455 L 185.600 132.911 186.539 133.090 C 187.056 133.189,187.984 133.704,188.601 134.235 C 189.219 134.766,189.876 135.200,190.062 135.200 C 190.248 135.200,190.400 135.393,190.400 135.629 C 190.400 136.266,191.453 137.200,192.171 137.200 C 192.517 137.200,192.800 137.465,192.800 137.788 C 192.800 138.418,194.151 141.014,194.993 142.000 C 195.275 142.330,195.635 143.050,195.794 143.600 C 196.592 146.361,198.234 147.159,199.908 145.600 C 200.380 145.160,201.123 144.800,201.560 144.800 C 201.996 144.800,202.464 144.620,202.600 144.400 C 202.736 144.180,203.274 144.000,203.797 144.000 C 204.395 144.000,204.840 143.704,205.000 143.200 C 205.160 142.696,205.605 142.400,206.203 142.400 C 206.726 142.400,207.264 142.220,207.400 142.000 C 207.536 141.780,208.089 141.600,208.629 141.600 C 209.521 141.600,210.259 141.323,212.000 140.335 C 212.330 140.148,212.870 139.893,213.200 139.768 C 213.530 139.644,214.113 139.375,214.495 139.171 C 214.877 138.967,215.434 138.800,215.733 138.800 C 216.031 138.800,216.602 138.440,217.000 138.000 C 217.398 137.560,218.135 137.200,218.638 137.200 C 219.141 137.200,219.664 137.020,219.800 136.800 C 219.936 136.580,220.384 136.400,220.796 136.400 C 221.925 136.400,224.359 134.714,224.627 133.747 C 225.051 132.213,221.015 122.611,219.740 122.122 C 219.443 122.008,219.200 121.589,219.200 121.191 C 219.200 120.793,218.660 119.958,218.000 119.335 C 217.340 118.712,216.800 118.008,216.800 117.770 C 216.800 117.082,210.659 111.200,209.940 111.200 C 209.754 111.200,208.934 110.570,208.118 109.800 C 207.301 109.030,206.323 108.400,205.944 108.400 C 205.564 108.400,205.140 108.040,205.000 107.600 C 204.860 107.160,204.494 106.800,204.185 106.800 C 203.877 106.800,202.989 106.440,202.212 106.000 C 201.435 105.560,200.165 104.840,199.388 104.400 C 198.611 103.960,197.632 103.600,197.211 103.600 C 196.791 103.600,196.336 103.420,196.200 103.200 C 196.064 102.980,195.335 102.800,194.580 102.800 C 193.640 102.800,193.049 102.548,192.707 102.000 C 192.336 101.406,191.774 101.200,190.527 101.200 C 189.603 101.200,188.736 101.020,188.600 100.800 C 188.464 100.580,187.733 100.400,186.976 100.400 L 185.600 100.400 185.600 91.000 C 185.600 78.743,186.954 79.992,173.700 80.027 C 167.170 80.044,163.071 80.213,162.500 80.488 M161.600 145.000 C 161.600 158.346,161.341 161.553,160.516 158.400 C 160.400 157.957,159.970 157.600,159.553 157.600 C 159.139 157.600,158.800 157.420,158.800 157.200 C 158.800 156.980,158.534 156.800,158.209 156.800 C 157.884 156.800,157.322 156.348,156.960 155.795 C 156.598 155.243,155.905 154.691,155.421 154.569 C 154.936 154.448,154.283 153.976,153.970 153.520 C 153.656 153.065,153.117 152.402,152.771 152.046 C 152.425 151.691,151.826 150.714,151.441 149.876 C 151.055 149.038,150.483 148.253,150.170 148.133 C 149.163 147.747,149.368 140.152,150.400 139.600 C 150.840 139.365,151.200 138.855,151.200 138.467 C 151.200 137.530,155.292 133.200,156.178 133.200 C 156.561 133.200,156.969 132.840,157.084 132.400 C 157.218 131.889,157.630 131.600,158.223 131.600 C 158.734 131.600,159.264 131.420,159.400 131.200 C 159.536 130.980,160.087 130.800,160.624 130.800 L 161.600 130.800 161.600 145.000 M214.200 182.614 C 211.122 184.176,211.204 183.708,211.202 199.762 L 211.200 214.124 212.253 215.505 C 214.240 218.110,212.603 218.000,249.400 218.000 C 285.605 218.000,284.317 218.076,286.400 215.820 L 287.400 214.736 287.507 200.268 C 287.626 183.997,287.599 183.827,284.604 182.576 C 282.475 181.686,215.957 181.722,214.200 182.614 M188.916 204.939 C 189.687 205.632,191.064 206.872,191.976 207.692 C 192.888 208.513,193.892 209.802,194.207 210.556 C 194.522 211.310,194.945 211.988,195.147 212.063 C 195.919 212.351,195.873 223.198,195.100 223.203 C 194.634 223.206,193.600 224.930,193.600 225.704 C 193.600 225.893,192.852 226.712,191.939 227.524 C 191.025 228.336,189.679 229.563,188.947 230.252 C 188.215 230.940,187.163 231.590,186.608 231.696 L 185.600 231.889 185.600 217.600 L 185.600 203.311 186.557 203.494 C 187.084 203.595,188.145 204.245,188.916 204.939 M218.485 228.984 C 214.966 230.927,213.394 234.915,214.964 237.920 C 218.429 244.552,228.200 242.544,228.200 235.200 C 228.200 230.299,222.597 226.714,218.485 228.984 M237.285 228.984 C 233.766 230.927,232.194 234.915,233.764 237.920 C 237.230 244.553,246.880 242.572,246.880 235.227 C 246.880 230.319,241.366 226.731,237.285 228.984 M255.654 229.246 C 249.454 232.881,251.708 242.012,258.800 241.992 C 265.841 241.972,268.299 232.774,262.188 229.313 C 260.197 228.185,257.510 228.157,255.654 229.246 M274.140 229.402 C 270.943 231.319,269.798 235.456,271.613 238.533 C 275.183 244.582,284.400 242.180,284.400 235.200 C 284.400 229.864,278.722 226.656,274.140 229.402 M217.808 258.115 C 213.171 260.741,213.394 267.158,218.217 269.890 C 223.317 272.779,229.561 267.797,228.019 262.069 C 226.882 257.849,221.772 255.870,217.808 258.115 M237.158 257.732 C 233.363 259.436,232.009 264.235,234.395 267.529 C 238.546 273.260,246.914 270.715,246.914 263.722 C 246.914 258.993,241.608 255.735,237.158 257.732 M255.480 257.874 C 252.553 259.413,251.082 263.874,252.562 266.720 C 256.013 273.353,265.600 271.170,265.600 263.752 C 265.600 258.760,259.991 255.502,255.480 257.874 M274.280 257.874 C 269.502 260.386,269.731 267.550,274.666 269.947 C 282.907 273.951,288.520 262.179,280.505 257.700 C 279.316 257.035,275.681 257.137,274.280 257.874 M218.391 286.500 C 211.691 289.889,214.013 299.220,221.549 299.193 C 228.866 299.167,230.854 289.252,224.120 286.366 C 221.799 285.371,220.565 285.400,218.391 286.500 M237.325 286.378 C 230.518 289.469,232.641 299.107,240.146 299.181 C 247.915 299.258,249.658 288.761,242.307 286.167 C 240.203 285.425,239.344 285.461,237.325 286.378 M256.403 286.237 C 249.252 289.338,251.200 299.204,258.961 299.199 C 266.123 299.193,268.310 289.819,261.895 286.623 C 259.557 285.458,258.390 285.376,256.403 286.237 M275.203 286.237 C 268.260 289.248,269.942 299.200,277.393 299.200 C 284.869 299.200,287.306 289.917,280.695 286.623 C 278.357 285.458,277.190 285.376,275.203 286.237 " stroke="none" fill="#fbfbfb" fill-rule="evenodd"></path><path id="path2" d="M206.032 181.043 C 206.014 181.727,205.406 183.437,204.681 184.843 C 203.478 187.174,202.400 190.697,202.400 192.297 C 202.400 193.508,202.805 192.521,203.212 190.318 C 203.437 189.102,204.066 187.183,204.610 186.055 C 205.155 184.927,205.600 183.882,205.600 183.733 C 205.600 183.585,205.888 183.144,206.241 182.755 C 206.747 182.196,206.796 181.809,206.473 180.923 L 206.063 179.800 206.032 181.043 M211.996 182.700 C 210.943 183.691,210.406 184.540,210.416 185.200 C 210.431 186.162,210.452 186.153,210.963 184.980 C 211.255 184.309,212.072 183.274,212.778 182.680 L 214.061 181.600 249.430 181.600 L 284.798 181.600 286.399 183.047 L 288.000 184.493 288.000 199.886 L 288.000 215.279 286.711 216.483 C 284.633 218.425,285.116 218.400,249.067 218.400 L 214.586 218.400 213.157 217.429 C 212.371 216.895,211.433 215.860,211.073 215.129 C 210.552 214.071,210.416 213.973,210.409 214.649 C 210.404 215.150,211.135 216.175,212.191 217.149 L 213.982 218.800 249.370 218.800 L 284.759 218.800 285.879 217.811 C 288.634 215.380,288.400 217.047,288.400 199.883 L 288.400 184.306 286.800 182.753 L 285.199 181.200 249.394 181.200 L 213.590 181.200 211.996 182.700 M210.180 200.000 C 210.180 207.590,210.234 210.695,210.299 206.900 C 210.365 203.105,210.365 196.895,210.299 193.100 C 210.234 189.305,210.180 192.410,210.180 200.000 M202.098 225.820 C 202.035 246.355,201.857 258.013,201.601 258.321 C 201.377 258.593,201.465 258.577,201.804 258.285 C 202.331 257.830,202.392 253.827,202.300 225.783 L 202.195 193.800 202.098 225.820 M219.200 227.554 C 211.250 229.612,211.890 241.843,220.003 242.898 C 222.340 243.202,224.882 242.756,225.132 241.999 C 225.305 241.476,225.242 241.473,224.635 241.974 C 222.474 243.758,216.681 242.044,214.848 239.078 C 209.849 230.990,221.996 223.419,227.700 231.068 C 228.305 231.879,228.800 232.290,228.800 231.982 C 228.800 229.414,222.766 226.630,219.200 227.554 M238.000 227.554 C 229.859 229.661,230.536 241.816,238.857 242.930 C 240.940 243.208,243.674 242.778,243.887 242.138 C 243.992 241.823,243.511 241.862,242.348 242.263 C 234.265 245.048,228.808 233.540,236.045 228.972 C 237.912 227.793,241.480 227.479,243.107 228.350 C 243.640 228.635,244.000 228.669,244.000 228.433 C 244.000 227.548,240.182 226.989,238.000 227.554 M256.800 227.535 C 248.178 229.929,249.477 242.678,258.369 242.929 C 260.782 242.998,262.800 242.592,262.800 242.039 C 262.800 241.849,262.056 241.950,261.146 242.263 C 253.058 245.050,247.656 233.820,254.782 229.034 C 256.701 227.745,260.154 227.412,261.902 228.347 C 262.396 228.612,262.800 228.661,262.800 228.457 C 262.800 227.676,258.611 227.032,256.800 227.535 M275.600 227.535 C 268.999 229.368,267.559 237.862,273.200 241.692 C 275.411 243.192,279.910 243.488,281.127 242.212 C 281.766 241.543,281.749 241.533,280.802 242.020 C 272.565 246.256,265.949 233.652,273.847 228.771 C 280.854 224.441,288.723 233.672,283.363 239.935 C 282.579 240.851,282.117 241.600,282.335 241.600 C 283.778 241.600,285.400 238.212,285.400 235.200 C 285.400 232.155,283.774 228.800,282.298 228.800 C 282.059 228.800,281.578 228.542,281.230 228.227 C 280.489 227.557,277.045 227.133,275.600 227.535 M245.683 230.089 C 247.208 231.722,247.600 232.766,247.600 235.200 C 247.600 237.634,247.208 238.678,245.683 240.311 C 245.021 241.020,244.628 241.600,244.810 241.600 C 245.522 241.600,247.552 238.613,247.970 236.952 C 248.665 234.194,246.574 228.800,244.810 228.800 C 244.628 228.800,245.021 229.380,245.683 230.089 M264.026 229.700 C 265.635 231.389,266.127 232.453,266.440 234.926 L 266.753 237.400 266.624 234.717 C 266.497 232.081,264.793 228.800,263.551 228.800 C 263.341 228.800,263.555 229.205,264.026 229.700 M228.913 235.200 C 228.913 237.423,228.965 237.611,229.268 236.500 C 229.474 235.744,229.474 234.656,229.268 233.900 C 228.965 232.789,228.913 232.977,228.913 235.200 M265.864 238.200 C 265.720 238.640,265.052 239.585,264.381 240.300 C 263.709 241.015,263.333 241.600,263.546 241.600 C 264.152 241.600,266.487 238.459,266.296 237.900 C 266.193 237.598,266.022 237.717,265.864 238.200 M228.432 238.222 C 228.414 238.454,227.791 239.309,227.046 240.122 C 225.343 241.981,225.782 242.076,227.566 240.235 C 228.294 239.484,228.794 238.629,228.676 238.335 C 228.559 238.041,228.449 237.990,228.432 238.222 M217.189 257.075 C 214.399 258.979,213.600 260.558,213.600 264.166 C 213.600 267.446,216.246 271.248,218.486 271.186 C 218.769 271.178,218.625 270.953,218.167 270.686 C 212.385 267.315,212.402 260.121,218.200 257.065 C 218.860 256.717,219.125 256.425,218.789 256.416 C 218.453 256.407,217.733 256.704,217.189 257.075 M224.983 257.310 C 229.736 260.002,230.328 265.922,226.207 269.541 C 225.418 270.233,224.478 270.800,224.119 270.800 C 223.760 270.800,223.581 270.914,223.721 271.054 C 224.781 272.115,228.413 268.522,229.188 265.646 C 230.120 262.183,226.936 256.381,224.117 256.407 C 223.679 256.411,224.015 256.762,224.983 257.310 M235.136 257.706 C 231.070 261.300,231.179 267.008,235.376 270.209 C 236.091 270.754,236.929 271.192,237.238 271.182 C 237.547 271.173,237.130 270.811,236.312 270.379 C 231.645 267.914,231.423 260.816,235.915 257.689 C 236.934 256.980,237.505 256.403,237.184 256.406 C 236.863 256.409,235.941 256.994,235.136 257.706 M243.800 257.368 C 246.334 258.889,247.345 260.569,247.549 263.600 C 247.694 265.762,247.777 266.005,248.042 265.045 C 248.845 262.131,245.440 256.390,242.917 256.404 C 242.469 256.406,242.801 256.768,243.800 257.368 M253.966 257.706 C 251.318 260.095,250.630 261.920,251.072 265.381 C 251.348 267.549,254.389 271.217,255.881 271.184 C 256.383 271.173,256.238 270.977,255.400 270.534 C 250.269 267.823,249.917 261.029,254.734 257.677 C 255.742 256.974,256.305 256.403,255.984 256.406 C 255.663 256.409,254.755 256.994,253.966 257.706 M262.574 257.392 C 267.736 260.563,267.640 267.645,262.396 270.458 C 261.635 270.866,261.244 271.200,261.526 271.200 C 264.780 271.200,267.619 265.895,266.574 261.770 C 266.043 259.675,263.028 256.387,261.661 256.412 C 261.286 256.420,261.680 256.843,262.574 257.392 M272.084 258.318 C 267.964 262.331,269.957 271.366,274.923 271.182 C 275.185 271.173,274.741 270.817,273.936 270.391 C 268.953 267.759,268.732 261.019,273.519 257.687 C 274.539 256.977,275.073 256.400,274.711 256.400 C 274.349 256.400,273.167 257.263,272.084 258.318 M281.473 257.513 C 286.551 260.883,286.354 267.951,281.110 270.536 C 280.389 270.891,280.070 271.180,280.400 271.177 C 283.674 271.149,286.390 265.614,285.235 261.327 C 284.756 259.550,281.690 256.398,280.444 256.402 C 280.090 256.403,280.553 256.903,281.473 257.513 M246.192 268.172 C 245.527 269.067,244.357 270.115,243.592 270.499 C 242.826 270.884,242.434 271.199,242.720 271.199 C 244.198 271.201,247.929 267.836,247.529 266.860 C 247.458 266.686,246.856 267.276,246.192 268.172 M220.100 271.487 C 220.705 271.578,221.695 271.578,222.300 271.487 C 222.905 271.395,222.410 271.320,221.200 271.320 C 219.990 271.320,219.495 271.395,220.100 271.487 M238.900 271.487 C 239.505 271.578,240.495 271.578,241.100 271.487 C 241.705 271.395,241.210 271.320,240.000 271.320 C 238.790 271.320,238.295 271.395,238.900 271.487 M257.700 271.487 C 258.305 271.578,259.295 271.578,259.900 271.487 C 260.505 271.395,260.010 271.320,258.800 271.320 C 257.590 271.320,257.095 271.395,257.700 271.487 M276.500 271.487 C 277.105 271.578,278.095 271.578,278.700 271.487 C 279.305 271.395,278.810 271.320,277.600 271.320 C 276.390 271.320,275.895 271.395,276.500 271.487 M216.528 286.211 C 213.630 288.496,212.476 293.566,214.225 296.332 C 215.274 297.991,217.657 300.000,218.573 299.998 C 219.251 299.996,219.184 299.883,218.200 299.371 C 215.261 297.842,214.000 295.809,214.000 292.600 C 214.000 289.289,215.324 287.144,218.200 285.794 C 219.128 285.359,219.219 285.229,218.600 285.220 C 218.160 285.214,217.228 285.660,216.528 286.211 M224.400 285.648 C 230.312 287.999,230.433 296.328,224.599 299.370 C 223.940 299.714,223.670 299.990,224.000 299.983 C 225.735 299.949,228.501 296.997,229.188 294.445 C 230.193 290.713,226.977 285.078,223.926 285.225 C 223.637 285.239,223.850 285.430,224.400 285.648 M235.328 286.211 C 230.512 290.008,232.043 300.015,237.438 299.998 C 238.002 299.996,237.888 299.833,237.000 299.371 C 233.980 297.800,232.800 295.816,232.800 292.309 C 232.800 289.069,234.005 287.200,237.000 285.794 C 237.928 285.359,238.019 285.229,237.400 285.220 C 236.960 285.214,236.028 285.660,235.328 286.211 M243.606 285.941 C 244.373 286.348,245.585 287.442,246.300 288.372 C 247.015 289.302,247.600 289.847,247.600 289.584 C 247.600 288.404,244.135 285.246,242.806 285.214 C 242.480 285.206,242.840 285.533,243.606 285.941 M253.243 287.119 C 249.341 291.020,251.333 300.110,256.062 299.986 C 256.362 299.978,256.231 299.757,255.767 299.486 C 249.988 296.117,249.792 288.829,255.400 285.866 C 256.238 285.423,256.383 285.227,255.881 285.216 C 255.485 285.207,254.299 286.063,253.243 287.119 M262.396 285.942 C 264.830 287.247,266.123 289.267,266.343 292.106 C 266.481 293.877,266.611 294.310,266.792 293.600 C 267.578 290.531,264.330 285.279,261.606 285.214 C 261.280 285.206,261.635 285.534,262.396 285.942 M271.988 287.135 C 269.911 289.290,269.361 291.135,269.842 294.340 C 270.141 296.336,273.276 300.001,274.681 299.999 C 275.208 299.997,275.080 299.791,274.200 299.223 C 271.336 297.377,270.668 296.458,270.219 293.745 C 269.688 290.539,271.161 287.475,273.936 286.009 C 274.961 285.467,275.168 285.230,274.626 285.218 C 274.201 285.208,273.014 286.071,271.988 287.135 M281.110 285.864 C 286.473 288.507,286.518 295.902,281.190 299.150 C 280.292 299.697,280.048 299.998,280.501 299.999 C 281.857 300.001,285.085 296.367,285.393 294.492 C 286.109 290.128,283.396 285.156,280.326 285.209 C 280.037 285.214,280.389 285.509,281.110 285.864 M247.684 292.259 C 247.672 295.499,246.224 297.902,243.400 299.371 C 242.588 299.793,242.432 299.996,242.917 299.998 C 245.454 300.006,248.862 294.242,248.026 291.355 C 247.739 290.365,247.691 290.495,247.684 292.259 M266.046 295.127 C 265.961 296.095,263.885 298.440,262.434 299.207 C 261.500 299.700,261.255 299.971,261.730 299.982 C 262.872 300.010,266.530 296.318,266.291 295.378 C 266.182 294.950,266.072 294.837,266.046 295.127 " stroke="none" fill="#8c8c8c" fill-rule="evenodd"></path><path id="path3" d="M205.489 180.530 C 205.594 181.080,205.190 182.345,204.499 183.630 C 201.608 189.004,201.810 186.012,201.790 223.800 L 201.772 257.800 202.004 224.200 C 202.257 187.558,202.139 189.314,204.671 184.443 C 205.924 182.032,206.419 179.600,205.655 179.600 C 205.466 179.600,205.391 180.018,205.489 180.530 M213.457 182.359 C 210.762 184.136,210.806 183.842,210.803 200.147 L 210.800 214.894 212.353 216.447 C 213.305 217.399,214.272 217.994,214.853 217.984 C 215.709 217.970,215.680 217.916,214.552 217.425 C 213.865 217.127,212.830 216.262,212.252 215.503 L 211.200 214.124 211.200 199.824 C 211.200 183.811,211.155 184.072,214.153 182.649 C 216.108 181.722,282.394 181.653,284.604 182.576 C 287.599 183.827,287.626 183.997,287.507 200.268 L 287.400 214.736 286.400 215.819 C 285.850 216.415,284.860 217.142,284.200 217.435 C 283.090 217.929,283.071 217.970,283.947 217.984 C 284.528 217.994,285.495 217.399,286.447 216.447 L 288.000 214.894 288.000 200.227 C 288.000 184.011,287.999 184.006,285.462 182.439 C 283.439 181.188,215.347 181.113,213.457 182.359 M232.730 218.300 C 242.041 218.360,257.161 218.360,266.330 218.300 C 275.498 218.240,267.880 218.191,249.400 218.191 C 230.920 218.191,223.418 218.240,232.730 218.300 M217.438 229.113 C 211.420 233.301,213.925 242.342,221.116 242.387 C 225.661 242.415,228.600 239.590,228.600 235.193 C 228.600 232.778,227.905 230.762,227.286 231.381 C 227.176 231.491,227.327 231.872,227.623 232.227 C 227.918 232.583,228.168 233.819,228.180 234.975 C 228.253 242.512,218.499 244.685,214.964 237.920 C 211.744 231.756,221.587 224.882,226.007 230.208 C 226.277 230.534,226.678 230.800,226.898 230.800 C 227.609 230.800,226.296 229.563,224.743 228.771 C 222.460 227.606,219.398 227.750,217.438 229.113 M236.205 229.129 C 233.739 230.834,232.800 232.508,232.800 235.200 C 232.800 242.379,242.318 245.143,246.300 239.120 C 250.552 232.688,242.535 224.753,236.205 229.129 M255.412 228.711 C 248.772 232.564,251.191 242.400,258.778 242.400 C 264.736 242.400,268.305 236.122,265.100 231.279 C 263.101 228.259,258.357 227.002,255.412 228.711 M273.912 228.821 C 269.044 231.392,269.095 239.098,273.998 241.599 C 279.074 244.189,284.987 240.746,284.987 235.200 C 284.987 229.646,278.943 226.165,273.912 228.821 M243.193 229.196 C 249.532 232.430,247.392 241.862,240.295 241.971 C 238.266 242.002,237.282 241.601,235.464 240.000 C 229.623 234.857,236.218 225.638,243.193 229.196 M262.188 229.313 C 266.878 231.969,266.878 238.431,262.188 241.087 C 257.660 243.652,252.000 240.381,252.000 235.200 C 252.000 230.053,257.690 226.765,262.188 229.313 M280.802 229.201 C 287.194 232.462,284.664 242.000,277.407 242.000 C 273.811 242.000,270.800 238.901,270.800 235.200 C 270.800 230.101,276.208 226.858,280.802 229.201 M219.200 256.845 C 213.053 259.272,212.086 267.348,217.601 270.200 C 219.439 271.151,219.970 270.883,218.217 269.890 C 211.829 266.272,214.099 257.227,221.400 257.208 C 230.405 257.185,230.615 269.146,221.639 270.828 L 219.800 271.173 221.878 271.008 C 227.354 270.573,230.450 265.266,227.949 260.601 C 226.202 257.342,222.246 255.643,219.200 256.845 M236.772 257.500 C 231.700 260.069,231.269 266.723,235.969 269.890 C 236.711 270.391,237.607 270.792,237.959 270.782 C 238.312 270.773,237.922 270.407,237.093 269.969 C 230.447 266.461,232.810 257.195,240.349 257.201 C 248.963 257.208,249.133 269.338,240.539 270.781 C 239.155 271.013,238.943 271.119,239.800 271.151 C 246.976 271.419,250.403 262.033,244.584 258.045 C 241.814 256.147,239.730 256.002,236.772 257.500 M257.022 256.671 C 250.910 258.383,249.548 266.373,254.769 269.890 C 255.511 270.391,256.407 270.793,256.759 270.784 C 257.128 270.775,256.890 270.499,256.200 270.135 C 249.295 266.495,251.280 257.196,258.961 257.201 C 267.996 257.208,267.852 269.415,258.800 270.936 C 258.250 271.028,258.660 271.043,259.712 270.969 C 266.720 270.477,268.695 261.367,262.609 257.606 C 261.258 256.771,258.382 256.290,257.022 256.671 M275.822 256.671 C 267.530 258.994,268.994 271.000,277.569 271.000 C 285.051 271.000,287.854 261.891,281.637 257.777 C 280.174 256.809,277.289 256.260,275.822 256.671 M280.505 257.700 C 286.054 260.801,285.803 267.699,280.051 270.211 C 274.094 272.812,268.157 265.369,271.980 260.092 C 273.890 257.454,278.002 256.301,280.505 257.700 M241.000 285.779 C 242.100 286.101,243.111 286.373,243.246 286.382 C 243.381 286.392,244.037 286.895,244.704 287.500 C 249.387 291.747,246.461 299.243,240.146 299.181 C 232.641 299.107,230.518 289.469,237.325 286.378 C 238.246 285.960,238.676 285.614,238.280 285.609 C 237.002 285.593,235.214 286.788,233.992 288.474 C 230.143 293.789,235.624 301.454,241.959 299.616 C 249.932 297.303,249.170 286.424,240.967 285.431 L 239.000 285.193 241.000 285.779 M259.355 285.615 C 268.019 287.816,267.689 299.192,258.961 299.199 C 251.200 299.204,249.252 289.338,256.403 286.237 C 257.440 285.788,257.583 285.627,256.959 285.616 C 256.497 285.607,255.511 286.009,254.769 286.510 C 248.750 290.566,251.484 299.660,258.752 299.759 C 267.991 299.885,268.972 286.478,259.800 285.445 C 257.879 285.229,257.862 285.236,259.355 285.615 M278.155 285.615 C 287.061 287.878,286.426 299.200,277.393 299.200 C 269.942 299.200,268.260 289.248,275.203 286.237 C 276.240 285.788,276.383 285.627,275.759 285.616 C 275.297 285.607,274.311 286.009,273.569 286.510 C 267.552 290.564,270.262 299.660,277.517 299.759 C 286.706 299.883,287.721 286.472,278.600 285.445 C 276.679 285.229,276.662 285.236,278.155 285.615 M217.165 286.512 C 213.034 289.296,212.929 295.438,216.963 298.328 C 222.978 302.636,231.099 296.562,228.251 289.887 C 227.302 287.663,224.929 285.575,223.411 285.628 C 222.869 285.647,223.148 285.901,224.251 286.391 C 230.855 289.329,228.778 299.168,221.549 299.193 C 214.013 299.220,211.691 289.889,218.391 286.500 C 219.579 285.899,219.896 285.600,219.344 285.600 C 218.890 285.600,217.909 286.010,217.165 286.512 " stroke="none" fill="#b5b5b5" fill-rule="evenodd"></path><path id="path4" d="M210.580 200.000 C 210.580 207.810,210.634 211.005,210.699 207.100 C 210.765 203.195,210.765 196.805,210.699 192.900 C 210.634 188.995,210.580 192.190,210.580 200.000 M270.093 235.200 C 270.093 235.970,270.175 236.285,270.276 235.900 C 270.376 235.515,270.376 234.885,270.276 234.500 C 270.175 234.115,270.093 234.430,270.093 235.200 M236.976 257.022 C 236.212 257.634,236.213 257.638,237.000 257.276 C 237.440 257.074,238.070 256.808,238.400 256.686 C 238.918 256.493,238.915 256.459,238.376 256.432 C 238.034 256.414,237.404 256.680,236.976 257.022 M270.093 264.000 C 270.093 264.770,270.175 265.085,270.276 264.700 C 270.376 264.315,270.376 263.685,270.276 263.300 C 270.175 262.915,270.093 263.230,270.093 264.000 M270.093 292.400 C 270.093 293.170,270.175 293.485,270.276 293.100 C 270.376 292.715,270.376 292.085,270.276 291.700 C 270.175 291.315,270.093 291.630,270.093 292.400 " stroke="none" fill="#949494" fill-rule="evenodd"></path></g></svg>