<svg id="svg" version="1.1" xmlns="http://www.w3.org/2000/svg" xmlns:xlink="http://www.w3.org/1999/xlink" width="400" height="400" viewBox="0, 0, 400,400"><g id="svgg"><path id="path0" d="M190.200 139.631 C 189.100 139.819,187.120 140.150,185.800 140.366 C 177.640 141.703,178.020 141.584,178.217 142.742 C 178.317 143.324,178.682 145.780,179.029 148.200 C 180.378 157.619,181.626 165.897,182.014 168.000 C 182.237 169.210,182.789 172.720,183.239 175.800 C 183.689 178.880,184.212 182.390,184.400 183.600 C 185.054 187.797,185.666 191.813,186.032 194.300 C 186.234 195.675,186.574 197.925,186.787 199.300 C 187.000 200.675,187.358 203.060,187.583 204.600 C 187.808 206.140,188.167 208.480,188.380 209.800 C 189.405 216.149,191.298 228.500,191.629 231.000 C 191.833 232.540,192.268 235.420,192.596 237.400 C 192.924 239.380,193.657 244.060,194.225 247.800 C 194.793 251.540,195.412 255.590,195.600 256.800 C 195.986 259.278,196.358 261.725,197.788 271.200 C 198.336 274.830,198.932 278.610,199.112 279.600 L 199.439 281.400 202.019 281.299 C 203.439 281.243,205.320 281.020,206.200 280.803 C 207.080 280.586,208.520 280.323,209.400 280.220 C 213.211 279.773,214.800 279.478,214.800 279.218 C 214.800 278.688,213.608 270.590,213.179 268.200 C 212.941 266.880,212.594 264.630,212.407 263.200 C 212.221 261.770,211.970 260.060,211.851 259.400 C 211.499 257.453,210.871 253.374,210.003 247.400 C 209.556 244.320,209.023 240.810,208.819 239.600 C 208.616 238.390,208.252 236.050,208.011 234.400 C 207.769 232.750,207.403 230.320,207.196 229.000 C 205.922 220.879,203.915 207.793,203.209 203.000 C 202.755 199.920,202.207 196.275,201.992 194.900 C 201.776 193.525,201.424 191.229,201.209 189.798 C 200.542 185.358,200.026 181.988,199.218 176.800 C 198.789 174.050,198.151 169.820,197.800 167.400 C 197.448 164.980,197.079 162.640,196.980 162.200 C 196.880 161.760,196.726 160.770,196.637 160.000 C 196.548 159.230,196.377 158.150,196.256 157.600 C 196.136 157.050,195.948 155.790,195.840 154.800 C 195.731 153.810,195.378 151.470,195.055 149.600 C 194.733 147.730,194.235 144.625,193.950 142.700 C 193.381 138.851,193.620 139.047,190.200 139.631 M242.611 179.601 C 225.100 182.754,212.804 202.284,217.931 218.800 C 218.914 221.964,220.658 225.865,221.256 226.235 C 221.452 226.356,221.950 227.117,222.364 227.927 C 223.365 229.886,229.373 235.600,230.432 235.600 C 230.643 235.600,231.531 236.051,232.405 236.603 C 239.169 240.873,255.626 240.850,260.431 236.563 C 260.779 236.253,261.258 236.000,261.497 236.000 C 262.456 236.000,272.000 227.498,272.000 226.643 C 272.000 226.434,272.247 225.979,272.550 225.631 C 276.908 220.625,278.986 209.234,276.981 201.331 C 276.407 199.069,276.207 198.533,274.844 195.626 C 269.490 184.207,255.543 177.273,242.611 179.601 M142.972 181.249 C 138.439 181.784,131.612 184.393,128.755 186.682 C 126.505 188.485,120.800 194.171,120.800 194.612 C 120.800 194.881,120.517 195.337,120.171 195.624 C 116.411 198.745,114.102 211.706,115.946 219.333 C 117.342 225.103,119.146 228.273,123.958 233.409 C 130.503 240.395,142.067 243.567,151.800 241.047 C 170.930 236.093,182.013 213.594,173.202 197.600 C 172.778 196.830,172.150 195.611,171.807 194.892 C 167.767 186.427,154.058 179.940,142.972 181.249 M250.973 196.856 C 253.225 197.650,258.000 201.155,258.000 202.013 C 258.000 202.197,258.585 203.288,259.300 204.438 C 265.392 214.239,252.647 227.305,242.171 222.001 C 226.938 214.287,235.011 191.226,250.973 196.856 M150.984 199.410 C 161.562 204.762,161.512 219.323,150.900 224.100 C 141.055 228.532,128.786 216.869,132.700 206.800 C 135.633 199.255,143.997 195.874,150.984 199.410 " stroke="none" fill="#070707" fill-rule="evenodd"></path><path id="path1" d="M130.600 43.200 C 130.464 43.420,129.598 43.600,128.676 43.600 C 126.920 43.601,125.500 44.518,124.500 46.299 C 123.903 47.363,123.835 49.600,124.400 49.600 C 124.653 49.600,124.800 52.467,124.800 57.400 C 124.800 62.333,124.947 65.200,125.200 65.200 C 125.453 65.200,125.600 68.067,125.600 73.000 C 125.600 77.933,125.747 80.800,126.000 80.800 C 126.253 80.800,126.400 83.592,126.400 88.376 C 126.400 92.996,126.556 96.049,126.800 96.200 C 127.759 96.792,125.365 100.400,124.014 100.400 C 123.787 100.400,122.859 101.120,121.952 102.000 C 121.045 102.880,120.145 103.600,119.952 103.600 C 119.759 103.600,118.859 104.320,117.952 105.200 C 117.045 106.080,116.127 106.800,115.912 106.800 C 115.697 106.800,115.017 107.340,114.400 108.000 C 113.783 108.660,113.164 109.200,113.023 109.200 C 112.737 109.200,112.126 109.673,110.310 111.300 C 109.634 111.905,108.934 112.400,108.754 112.400 C 108.574 112.400,107.797 113.030,107.027 113.800 C 106.257 114.570,105.462 115.200,105.262 115.200 C 105.061 115.200,104.155 115.920,103.248 116.800 C 102.341 117.680,101.441 118.400,101.248 118.400 C 101.055 118.400,100.155 119.120,99.248 120.000 C 98.341 120.880,97.463 121.600,97.297 121.600 C 97.131 121.600,96.231 122.320,95.297 123.200 C 94.363 124.080,93.491 124.800,93.360 124.800 C 93.228 124.800,92.644 125.295,92.060 125.900 C 91.477 126.505,90.529 127.242,89.954 127.538 C 89.379 127.835,88.479 128.470,87.954 128.950 C 87.429 129.430,86.370 130.259,85.600 130.792 C 84.830 131.326,83.909 132.086,83.553 132.481 C 83.197 132.876,82.794 133.200,82.658 133.200 C 82.371 133.200,81.110 134.203,79.768 135.500 C 79.256 135.995,78.724 136.400,78.587 136.400 C 78.450 136.400,77.646 137.120,76.800 138.000 C 75.954 138.880,75.054 139.600,74.800 139.600 C 74.546 139.600,73.646 140.320,72.800 141.200 C 71.954 142.080,71.056 142.800,70.803 142.800 C 70.550 142.800,70.117 143.025,69.842 143.300 C 69.566 143.575,68.748 144.250,68.024 144.800 C 65.700 146.564,63.813 148.183,63.328 148.828 C 63.068 149.173,62.312 150.038,61.648 150.748 C 60.984 151.459,60.330 152.392,60.194 152.820 C 60.057 153.249,59.778 153.600,59.573 153.600 C 59.368 153.600,59.200 153.920,59.200 154.312 C 59.200 154.703,58.840 155.283,58.400 155.600 C 57.960 155.917,57.600 156.497,57.600 156.888 C 57.600 157.280,57.420 157.600,57.200 157.600 C 56.980 157.600,56.800 157.960,56.800 158.400 C 56.800 158.840,56.620 159.200,56.400 159.200 C 56.180 159.200,56.000 159.560,56.000 160.000 C 56.000 160.440,55.849 160.800,55.664 160.800 C 55.479 160.800,55.100 161.835,54.822 163.100 C 54.544 164.365,54.171 165.760,53.993 166.200 C 52.980 168.712,52.240 180.800,53.100 180.800 C 53.265 180.800,53.456 181.745,53.524 182.900 C 53.592 184.055,53.817 185.171,54.024 185.380 C 54.231 185.589,54.400 186.163,54.400 186.656 C 54.400 187.149,54.580 187.664,54.800 187.800 C 55.020 187.936,55.200 188.487,55.200 189.024 C 55.200 189.561,55.380 190.000,55.600 190.000 C 55.820 190.000,56.000 190.500,56.000 191.112 C 56.000 191.765,56.330 192.461,56.800 192.800 C 57.240 193.117,57.600 193.789,57.600 194.292 C 57.600 194.795,58.140 195.772,58.800 196.463 C 59.460 197.154,60.000 197.919,60.000 198.163 C 60.000 198.408,60.410 199.056,60.911 199.604 C 61.413 200.152,62.264 201.230,62.803 202.000 C 63.342 202.770,64.147 203.774,64.591 204.231 C 65.036 204.688,65.850 205.661,66.400 206.394 C 66.950 207.127,67.625 207.955,67.900 208.235 C 68.175 208.514,68.400 208.860,68.400 209.003 C 68.400 209.146,69.120 209.954,70.000 210.800 C 70.880 211.646,71.600 212.546,71.600 212.800 C 71.600 213.054,72.320 213.954,73.200 214.800 C 74.080 215.646,74.800 216.537,74.800 216.780 C 74.800 217.024,75.345 217.803,76.011 218.511 C 76.677 219.220,78.072 220.970,79.110 222.400 C 80.149 223.830,81.584 225.591,82.299 226.313 C 83.015 227.036,83.600 227.795,83.600 228.000 C 83.600 228.205,84.230 229.003,85.000 229.773 C 85.770 230.543,86.400 231.338,86.400 231.538 C 86.400 231.739,87.120 232.645,88.000 233.552 C 88.880 234.459,89.600 235.359,89.600 235.552 C 89.600 235.745,90.320 236.645,91.200 237.552 C 92.080 238.459,92.800 239.298,92.800 239.417 C 92.800 239.648,93.155 240.094,94.900 242.051 C 95.505 242.729,96.000 243.440,96.000 243.629 C 96.000 243.818,96.630 244.603,97.400 245.373 C 98.170 246.143,98.800 246.922,98.800 247.103 C 98.800 247.284,99.520 248.228,100.400 249.200 C 101.280 250.172,102.000 251.128,102.000 251.324 C 102.000 251.519,102.502 252.156,103.115 252.740 C 103.729 253.323,104.665 254.430,105.196 255.200 C 105.728 255.970,106.486 256.891,106.881 257.247 C 107.276 257.603,107.600 258.026,107.600 258.186 C 107.600 258.347,108.113 258.958,108.741 259.545 C 109.368 260.131,110.163 261.148,110.508 261.805 C 110.853 262.462,111.779 263.698,112.567 264.550 C 113.355 265.403,114.000 266.252,114.000 266.437 C 114.000 266.622,114.630 267.403,115.400 268.173 C 116.170 268.943,116.800 269.715,116.800 269.889 C 116.800 270.062,117.520 270.969,118.400 271.903 C 119.280 272.837,120.000 273.691,120.000 273.800 C 120.000 273.910,120.720 274.741,121.600 275.648 C 122.480 276.555,123.200 277.473,123.200 277.688 C 123.200 277.903,123.740 278.583,124.400 279.200 C 125.060 279.817,125.600 280.519,125.600 280.760 C 125.600 281.002,125.780 281.200,126.000 281.200 C 126.220 281.200,126.400 281.388,126.400 281.617 C 126.400 281.998,126.571 282.253,127.813 283.714 C 128.040 283.981,128.668 284.828,129.208 285.596 C 130.224 287.038,131.264 288.269,133.500 290.672 C 134.215 291.440,134.800 292.247,134.800 292.466 C 134.800 292.684,135.520 293.554,136.400 294.400 C 137.280 295.246,138.000 296.146,138.000 296.400 C 138.000 296.654,138.720 297.554,139.600 298.400 C 140.480 299.246,141.200 300.137,141.200 300.380 C 141.200 300.624,141.745 301.403,142.411 302.111 C 143.077 302.820,144.472 304.570,145.510 306.000 C 146.549 307.430,147.984 309.191,148.699 309.913 C 149.415 310.636,150.000 311.395,150.000 311.600 C 150.000 311.805,150.630 312.603,151.400 313.373 C 152.170 314.143,152.800 314.938,152.800 315.138 C 152.800 315.339,153.520 316.245,154.400 317.152 C 155.280 318.059,156.000 318.959,156.000 319.152 C 156.000 319.345,156.720 320.245,157.600 321.152 C 158.480 322.059,159.200 322.898,159.200 323.017 C 159.200 323.264,159.509 323.655,161.199 325.542 C 161.859 326.281,162.400 327.040,162.400 327.229 C 162.400 327.418,163.030 328.203,163.800 328.973 C 164.570 329.743,165.200 330.533,165.200 330.727 C 165.200 330.922,165.697 331.603,166.304 332.241 C 166.912 332.878,167.848 334.030,168.385 334.800 C 168.923 335.570,169.641 336.470,169.981 336.800 C 170.321 337.131,171.223 338.211,171.985 339.200 C 172.747 340.190,173.512 341.060,173.685 341.133 C 173.858 341.207,174.000 341.446,174.000 341.665 C 174.000 341.884,174.720 342.754,175.600 343.600 C 176.480 344.446,177.200 345.384,177.200 345.685 C 177.200 345.987,177.787 346.856,178.504 347.617 C 179.221 348.377,180.323 349.675,180.951 350.500 C 181.580 351.325,182.255 352.000,182.451 352.000 C 182.647 352.000,183.372 352.540,184.063 353.200 C 184.754 353.860,185.496 354.400,185.712 354.400 C 185.929 354.400,186.397 354.725,186.753 355.122 C 187.345 355.783,192.402 358.420,194.800 359.319 C 195.350 359.525,196.113 359.852,196.495 360.047 C 196.877 360.241,197.541 360.400,197.971 360.400 C 198.401 360.400,198.864 360.580,199.000 360.800 C 199.136 361.020,200.137 361.200,201.224 361.200 C 202.348 361.200,203.200 361.383,203.200 361.624 C 203.200 361.906,205.134 362.020,209.000 361.967 C 212.190 361.923,214.800 361.750,214.800 361.584 C 214.800 361.417,215.565 361.184,216.500 361.066 C 219.325 360.710,220.800 360.328,220.800 359.955 C 220.800 359.760,221.239 359.600,221.776 359.600 C 222.313 359.600,222.864 359.420,223.000 359.200 C 223.136 358.980,223.674 358.800,224.195 358.800 C 224.716 358.800,225.381 358.563,225.671 358.273 C 225.962 357.983,226.793 357.540,227.518 357.288 C 228.983 356.778,231.058 355.418,232.047 354.319 C 232.403 353.924,232.876 353.600,233.099 353.600 C 233.321 353.600,234.245 352.880,235.152 352.000 C 236.059 351.120,236.981 350.400,237.200 350.400 C 237.420 350.400,237.600 350.220,237.600 350.000 C 237.600 349.780,237.798 349.600,238.040 349.600 C 238.281 349.600,238.983 349.060,239.600 348.400 C 240.217 347.740,240.843 347.200,240.992 347.200 C 241.141 347.200,241.954 346.480,242.800 345.600 C 243.646 344.720,244.549 344.000,244.808 344.000 C 245.067 344.000,245.758 343.487,246.345 342.859 C 246.931 342.232,247.948 341.437,248.605 341.093 C 249.262 340.749,250.160 340.133,250.600 339.723 C 251.040 339.313,252.028 338.535,252.796 337.994 C 254.239 336.975,255.474 335.931,257.872 333.700 C 258.640 332.985,259.447 332.400,259.666 332.400 C 259.884 332.400,260.754 331.680,261.600 330.800 C 262.446 329.920,263.346 329.200,263.600 329.200 C 263.854 329.200,264.754 328.480,265.600 327.600 C 266.446 326.720,267.344 326.000,267.597 326.000 C 267.850 326.000,268.283 325.775,268.558 325.500 C 268.834 325.225,269.652 324.550,270.376 324.000 C 272.572 322.333,274.592 320.617,274.733 320.300 C 274.807 320.135,275.031 320.000,275.233 320.000 C 275.434 320.000,276.341 319.280,277.248 318.400 C 278.155 317.520,279.073 316.800,279.288 316.800 C 279.503 316.800,280.183 316.260,280.800 315.600 C 281.417 314.940,282.097 314.400,282.312 314.400 C 282.527 314.400,283.445 313.680,284.352 312.800 C 285.259 311.920,286.154 311.200,286.341 311.200 C 286.528 311.200,287.207 310.705,287.850 310.100 C 288.492 309.495,289.734 308.469,290.609 307.821 C 291.484 307.172,292.491 306.317,292.847 305.921 C 293.203 305.524,293.676 305.200,293.899 305.200 C 294.121 305.200,295.045 304.480,295.952 303.600 C 296.859 302.720,297.759 302.000,297.952 302.000 C 298.145 302.000,299.045 301.280,299.952 300.400 C 300.859 299.520,301.746 298.800,301.922 298.800 C 302.099 298.800,302.892 298.215,303.685 297.500 C 305.950 295.458,306.785 294.800,307.116 294.800 C 307.285 294.800,307.683 294.440,308.000 294.000 C 308.317 293.560,308.725 293.200,308.906 293.200 C 309.088 293.200,309.670 292.795,310.199 292.300 C 311.630 290.962,312.154 290.560,313.184 290.008 C 313.698 289.734,314.727 288.899,315.472 288.154 C 316.217 287.409,316.995 286.800,317.200 286.800 C 317.405 286.800,318.203 286.170,318.973 285.400 C 319.743 284.630,320.559 284.000,320.787 284.000 C 321.014 284.000,321.200 283.820,321.200 283.600 C 321.200 283.380,321.398 283.200,321.640 283.200 C 321.881 283.200,322.583 282.660,323.200 282.000 C 323.817 281.340,324.443 280.800,324.592 280.800 C 324.741 280.800,325.554 280.080,326.400 279.200 C 327.246 278.320,328.142 277.600,328.391 277.600 C 328.978 277.600,334.800 271.824,334.800 271.242 C 334.800 270.999,334.950 270.800,335.132 270.800 C 335.315 270.800,335.720 270.305,336.032 269.700 C 336.344 269.095,336.717 268.510,336.860 268.400 C 337.333 268.039,340.000 262.479,340.000 261.856 C 340.000 261.521,340.150 261.155,340.332 261.042 C 340.515 260.929,340.903 259.523,341.194 257.918 C 341.485 256.313,341.875 254.829,342.062 254.620 C 342.594 254.022,342.490 242.800,341.951 242.800 C 341.628 242.800,341.634 242.641,341.970 242.236 C 342.291 241.850,342.306 241.589,342.019 241.412 C 341.789 241.269,341.600 240.546,341.600 239.804 C 341.600 238.215,339.738 232.236,338.796 230.800 C 338.435 230.250,337.906 229.215,337.621 228.500 C 337.336 227.785,336.975 227.200,336.819 227.200 C 336.663 227.200,336.280 226.705,335.968 226.100 C 335.655 225.495,334.905 224.523,334.300 223.940 C 333.695 223.356,333.200 222.703,333.200 222.488 C 333.200 222.273,332.480 221.355,331.600 220.448 C 330.720 219.541,330.000 218.641,330.000 218.448 C 330.000 218.255,329.280 217.355,328.400 216.448 C 327.520 215.541,326.800 214.653,326.800 214.475 C 326.800 214.297,326.485 213.800,326.100 213.371 C 325.715 212.943,324.686 211.694,323.814 210.596 C 322.942 209.498,321.907 208.309,321.514 207.953 C 321.121 207.597,320.800 207.140,320.800 206.937 C 320.800 206.734,320.080 205.772,319.200 204.800 C 318.320 203.828,317.600 202.890,317.600 202.716 C 317.600 202.543,316.880 201.659,316.000 200.752 C 315.120 199.845,314.400 198.948,314.400 198.758 C 314.400 198.423,312.738 196.490,310.100 193.760 C 309.385 193.020,308.800 192.186,308.800 191.907 C 308.800 191.628,308.080 190.612,307.200 189.649 C 306.320 188.687,305.600 187.779,305.600 187.633 C 305.600 187.486,304.970 186.699,304.200 185.882 C 303.430 185.066,302.800 184.240,302.800 184.047 C 302.800 183.854,302.080 182.955,301.200 182.048 C 300.320 181.141,299.599 180.264,299.598 180.100 C 299.595 179.648,297.216 177.200,296.780 177.200 C 296.571 177.200,296.400 176.930,296.400 176.600 C 296.400 176.271,295.680 175.259,294.800 174.352 C 293.920 173.445,293.200 172.521,293.200 172.299 C 293.200 172.076,292.883 171.603,292.497 171.247 C 292.110 170.891,291.256 169.790,290.600 168.800 C 289.944 167.810,289.127 166.730,288.784 166.400 C 288.442 166.070,287.723 165.172,287.186 164.404 C 286.134 162.902,284.955 161.519,282.900 159.380 C 282.185 158.636,281.600 157.827,281.600 157.582 C 281.600 157.337,280.880 156.446,280.000 155.600 C 279.120 154.754,278.400 153.854,278.400 153.600 C 278.400 153.346,277.680 152.446,276.800 151.600 C 275.920 150.754,275.200 149.814,275.200 149.510 C 275.200 149.206,274.570 148.346,273.800 147.600 C 273.030 146.854,272.400 146.080,272.400 145.882 C 272.400 145.683,271.770 144.890,271.000 144.120 C 270.230 143.350,269.600 142.564,269.600 142.373 C 269.600 142.183,268.970 141.397,268.200 140.627 C 267.430 139.857,266.800 139.062,266.800 138.862 C 266.800 138.661,266.080 137.755,265.200 136.848 C 264.320 135.941,263.600 135.041,263.600 134.848 C 263.600 134.655,262.880 133.755,262.000 132.848 C 261.120 131.941,260.400 131.053,260.400 130.875 C 260.400 130.697,260.082 130.202,259.694 129.775 C 259.306 129.349,258.271 128.100,257.396 127.000 C 256.520 125.900,255.488 124.709,255.102 124.353 C 254.716 123.997,254.400 123.524,254.400 123.301 C 254.400 123.079,253.680 122.155,252.800 121.248 C 251.920 120.341,251.200 119.457,251.200 119.284 C 251.200 119.110,250.480 118.172,249.600 117.200 C 248.720 116.228,248.000 115.293,248.000 115.123 C 248.000 114.818,246.256 112.806,243.700 110.160 C 242.985 109.420,242.400 108.623,242.400 108.390 C 242.400 107.933,242.232 107.703,240.401 105.658 C 239.741 104.919,239.200 104.192,239.200 104.041 C 239.200 103.890,238.570 103.099,237.800 102.282 C 237.030 101.466,236.400 100.640,236.400 100.447 C 236.400 100.254,235.680 99.355,234.800 98.448 C 233.920 97.541,233.200 96.619,233.200 96.400 C 233.200 96.180,233.050 96.000,232.868 96.000 C 232.685 96.000,232.296 95.553,232.004 95.007 C 231.711 94.460,231.141 93.908,230.736 93.780 C 230.331 93.651,230.000 93.288,230.000 92.974 C 230.000 92.659,229.280 91.659,228.400 90.752 C 227.520 89.845,226.800 88.921,226.800 88.699 C 226.800 88.476,226.483 88.003,226.097 87.647 C 225.710 87.291,224.896 86.265,224.288 85.366 C 223.681 84.468,222.866 83.388,222.478 82.966 C 222.090 82.545,221.467 81.760,221.093 81.221 C 220.197 79.929,218.115 77.464,216.500 75.781 C 215.785 75.036,215.200 74.286,215.200 74.113 C 215.199 73.570,213.329 71.600,212.814 71.600 C 212.543 71.600,211.817 71.060,211.200 70.400 C 210.583 69.740,209.900 69.200,209.682 69.200 C 209.463 69.200,208.747 68.705,208.089 68.100 C 207.064 67.156,203.260 65.058,200.600 63.968 C 195.000 61.674,188.292 60.937,180.800 61.794 C 178.733 62.030,174.800 63.000,174.800 63.273 C 174.800 63.453,174.260 63.600,173.600 63.600 C 172.940 63.600,172.400 63.780,172.400 64.000 C 172.400 64.220,171.984 64.400,171.475 64.400 C 170.967 64.400,170.164 64.760,169.692 65.200 C 169.220 65.640,168.591 66.000,168.295 66.000 C 167.603 66.000,163.997 68.282,163.153 69.254 C 162.797 69.664,162.364 70.000,162.191 70.000 C 162.018 70.000,161.191 70.720,160.354 71.600 C 159.517 72.480,158.631 73.200,158.385 73.200 C 158.139 73.200,157.246 73.920,156.400 74.800 C 155.554 75.680,154.661 76.400,154.414 76.400 C 153.948 76.400,153.423 76.782,151.799 78.300 C 151.270 78.795,150.692 79.200,150.516 79.200 C 150.340 79.200,149.431 79.920,148.497 80.800 C 147.563 81.680,146.696 82.400,146.571 82.400 C 146.445 82.400,146.114 82.625,145.835 82.900 C 145.555 83.175,144.726 83.850,143.991 84.400 C 143.257 84.950,142.064 85.985,141.341 86.700 C 139.535 88.486,139.600 88.644,139.600 82.480 C 139.600 79.444,139.427 76.787,139.216 76.576 C 139.004 76.364,138.738 72.323,138.623 67.596 C 138.248 52.068,138.000 47.426,137.494 46.406 C 136.707 44.820,135.514 43.600,134.751 43.600 C 134.364 43.600,133.936 43.420,133.800 43.200 C 133.664 42.980,132.944 42.800,132.200 42.800 C 131.456 42.800,130.736 42.980,130.600 43.200 M127.600 121.406 C 127.600 125.733,128.157 127.996,129.600 129.538 C 130.719 130.734,133.070 131.734,133.422 131.165 C 133.546 130.964,134.762 130.800,136.124 130.800 C 138.207 130.799,138.790 130.636,139.800 129.768 L 141.000 128.737 141.132 123.569 C 141.204 120.726,141.429 118.400,141.632 118.400 C 141.834 118.400,142.000 118.760,142.000 119.200 C 142.000 119.640,142.180 120.000,142.400 120.000 C 142.620 120.000,142.800 120.360,142.800 120.800 C 142.800 121.240,142.980 121.600,143.200 121.600 C 143.429 121.600,143.600 122.800,143.600 124.400 C 143.600 126.000,143.429 127.200,143.200 127.200 C 142.980 127.200,142.800 127.470,142.800 127.800 C 142.800 128.130,142.620 128.400,142.400 128.400 C 142.180 128.400,142.000 128.676,142.000 129.013 C 142.000 129.351,141.376 130.251,140.613 131.013 C 139.851 131.776,138.951 132.400,138.613 132.400 C 138.276 132.400,138.000 132.580,138.000 132.800 C 138.000 133.020,137.280 133.200,136.400 133.200 C 135.520 133.200,134.800 133.380,134.800 133.600 C 134.800 133.820,134.440 134.000,134.000 134.000 C 133.560 134.000,133.200 133.820,133.200 133.600 C 133.200 133.380,132.480 133.200,131.600 133.200 C 130.720 133.200,130.000 133.020,130.000 132.800 C 130.000 132.580,129.724 132.400,129.387 132.400 C 128.608 132.400,126.000 129.817,126.000 129.047 C 126.000 128.728,125.775 128.391,125.500 128.299 C 125.145 128.181,125.000 126.990,125.000 124.199 C 125.000 121.408,125.145 120.218,125.500 120.100 C 125.775 120.008,126.000 119.671,126.000 119.350 C 126.000 118.721,126.810 117.640,127.300 117.615 C 127.465 117.607,127.600 119.313,127.600 121.406 M194.425 139.800 C 194.574 140.460,194.914 142.530,195.180 144.400 C 195.446 146.270,195.827 148.790,196.027 150.000 C 196.361 152.026,198.221 164.232,201.237 184.200 C 202.634 193.449,203.791 200.998,204.638 206.400 C 205.431 211.454,206.306 217.163,206.814 220.600 C 207.042 222.140,207.402 224.525,207.614 225.900 C 207.826 227.275,208.180 229.570,208.400 231.000 C 208.620 232.430,208.980 234.770,209.200 236.200 C 209.638 239.046,210.223 242.901,210.597 245.400 C 210.728 246.280,210.995 247.990,211.189 249.200 C 211.383 250.410,211.929 254.010,212.402 257.200 C 212.875 260.390,213.402 263.900,213.573 265.000 C 215.263 275.837,215.722 279.637,215.383 279.976 C 215.172 280.186,212.390 280.742,209.200 281.212 C 206.010 281.682,202.594 282.216,201.609 282.399 C 198.925 282.896,198.567 282.528,198.026 278.711 C 197.767 276.890,197.205 273.150,196.777 270.400 C 196.349 267.650,195.805 264.050,195.570 262.400 C 195.334 260.750,194.988 258.590,194.800 257.600 C 194.612 256.610,194.255 254.360,194.006 252.600 C 193.537 249.295,193.091 246.293,192.400 241.800 C 192.011 239.274,191.684 237.109,190.784 231.098 C 190.545 229.504,190.182 227.210,189.976 226.000 C 189.771 224.790,187.707 211.290,185.390 196.000 C 183.073 180.710,180.826 166.040,180.396 163.400 C 179.967 160.760,179.327 156.620,178.975 154.200 C 178.622 151.780,178.165 148.720,177.959 147.400 C 176.853 140.302,176.566 140.826,182.000 140.044 C 187.916 139.192,190.981 138.732,191.600 138.602 C 193.295 138.246,194.156 138.612,194.425 139.800 M252.400 178.633 C 277.660 182.514,287.414 211.435,269.823 230.293 C 250.070 251.468,216.014 238.877,216.014 210.400 C 216.014 191.286,233.783 175.773,252.400 178.633 M150.695 180.401 C 159.070 181.489,167.379 186.578,171.679 193.255 C 174.152 197.094,174.327 197.442,175.401 200.640 C 179.713 213.482,175.195 227.453,163.954 236.030 C 161.094 238.212,157.325 240.322,155.155 240.957 C 154.630 241.111,153.210 241.523,152.000 241.873 C 149.111 242.709,140.129 242.821,137.600 242.054 C 130.641 239.941,127.046 237.891,122.828 233.627 C 102.256 212.837,121.242 176.575,150.695 180.401 M244.294 197.224 C 236.597 199.096,232.441 207.371,235.775 214.185 C 241.224 225.322,255.530 224.859,259.414 213.420 C 262.206 205.195,252.827 195.147,244.294 197.224 M141.097 199.509 C 134.456 201.936,131.132 209.728,134.062 216.000 C 138.938 226.437,152.728 226.716,157.307 216.470 C 161.454 207.192,150.742 195.984,141.097 199.509 " stroke="none" fill="#fbfbfb" fill-rule="evenodd"></path><path id="path2" d="M191.800 138.601 C 191.580 138.677,190.320 138.867,189.000 139.023 C 187.680 139.179,186.823 139.387,187.095 139.485 C 187.367 139.583,188.882 139.463,190.461 139.218 C 194.070 138.658,193.775 138.215,194.968 146.000 C 196.813 158.049,196.961 158.916,197.103 158.491 C 197.226 158.121,196.913 155.776,195.595 147.200 C 195.409 145.990,195.062 143.674,194.823 142.053 C 194.271 138.300,193.900 137.877,191.800 138.601 M180.673 140.201 C 176.775 140.906,176.596 141.685,178.414 150.000 C 179.003 152.696,178.812 149.639,178.138 145.577 C 177.346 140.808,177.013 141.223,182.301 140.376 C 184.665 139.997,185.880 139.692,185.000 139.697 C 184.120 139.703,182.173 139.930,180.673 140.201 M178.842 152.427 C 178.819 152.991,178.967 154.431,179.171 155.627 C 179.375 156.822,179.853 159.827,180.233 162.304 C 180.614 164.782,181.016 166.718,181.127 166.606 C 181.334 166.399,180.795 162.521,179.571 155.400 C 179.193 153.200,178.864 151.862,178.842 152.427 M197.390 161.000 C 197.784 164.987,202.203 193.261,202.333 192.622 C 202.406 192.261,201.911 188.373,201.233 183.983 C 200.555 179.592,199.448 172.355,198.773 167.900 C 197.559 159.882,197.008 157.134,197.390 161.000 M181.183 167.833 C 181.139 168.782,189.415 222.053,189.522 221.506 C 189.588 221.162,188.360 212.537,186.791 202.340 C 182.619 175.226,182.444 174.082,181.967 170.800 C 181.578 168.123,181.231 166.809,181.183 167.833 M245.600 178.400 C 244.627 178.605,245.470 178.711,248.367 178.747 C 250.658 178.776,252.449 178.715,252.345 178.612 C 251.994 178.261,247.007 178.104,245.600 178.400 M240.200 179.264 C 218.993 186.355,209.632 208.245,220.127 226.200 C 224.752 234.112,235.868 241.037,243.467 240.740 C 244.775 240.689,244.824 240.658,243.800 240.530 C 219.974 237.557,208.542 212.352,222.041 192.555 C 223.412 190.545,229.876 184.401,231.453 183.610 C 232.084 183.293,232.870 182.829,233.200 182.579 C 234.105 181.891,239.033 180.024,241.563 179.410 C 243.107 179.035,243.428 178.866,242.600 178.865 C 241.940 178.864,240.860 179.044,240.200 179.264 M255.793 179.642 C 257.549 180.073,259.160 180.600,259.373 180.813 C 259.586 181.026,260.030 181.200,260.360 181.200 C 260.732 181.200,260.815 181.062,260.580 180.837 C 260.039 180.321,254.700 178.794,253.557 178.829 C 253.031 178.845,254.037 179.211,255.793 179.642 M145.507 180.290 C 146.226 180.379,147.306 180.377,147.907 180.286 C 148.508 180.195,147.920 180.122,146.600 180.124 C 145.280 180.126,144.788 180.201,145.507 180.290 M137.982 181.336 C 108.081 190.191,105.896 230.205,134.713 241.206 C 135.435 241.482,136.114 241.619,136.222 241.511 C 136.331 241.403,135.304 240.907,133.940 240.410 C 104.934 229.834,110.133 187.282,141.200 181.001 C 143.114 180.614,143.431 180.471,142.400 180.459 C 141.630 180.450,139.642 180.845,137.982 181.336 M152.077 180.995 C 164.707 183.416,174.351 193.420,176.387 206.211 L 176.767 208.600 176.623 206.200 C 176.475 203.744,174.846 198.303,173.700 196.440 C 170.027 190.467,166.638 186.898,162.220 184.351 C 158.765 182.359,154.171 180.778,151.218 180.565 C 149.195 180.419,149.270 180.457,152.077 180.995 M261.200 181.392 C 261.200 181.497,261.965 181.973,262.900 182.449 C 266.555 184.308,271.153 188.465,273.156 191.721 C 273.670 192.558,274.177 193.157,274.281 193.052 C 274.801 192.532,269.873 186.785,267.000 184.562 C 264.401 182.551,261.200 180.801,261.200 181.392 M202.495 194.600 C 202.495 195.260,202.632 196.340,202.800 197.000 L 203.105 198.200 203.105 197.000 C 203.105 196.340,202.968 195.260,202.800 194.600 L 202.495 193.400 202.495 194.600 M274.528 193.900 C 275.777 196.039,277.354 200.705,278.145 204.600 C 278.252 205.130,278.323 205.010,278.354 204.243 C 278.440 202.098,275.419 193.600,274.570 193.600 C 274.450 193.600,274.432 193.735,274.528 193.900 M244.200 196.781 C 229.194 200.524,232.279 222.642,247.800 222.589 C 253.405 222.570,261.175 216.187,259.873 212.671 C 259.777 212.412,259.565 212.740,259.402 213.400 C 256.014 227.105,234.621 223.501,234.639 209.228 C 234.659 193.174,257.745 193.436,260.034 209.515 L 260.359 211.800 260.226 209.395 C 259.801 201.708,251.293 195.012,244.200 196.781 M141.289 198.964 C 130.177 202.589,129.695 217.776,140.517 223.265 C 147.558 226.836,158.607 221.187,158.360 214.144 C 158.324 213.117,158.283 213.155,157.963 214.513 C 154.585 228.861,132.993 225.817,133.044 211.000 C 133.095 196.343,153.357 194.627,157.816 208.901 C 158.108 209.836,158.358 210.240,158.373 209.800 C 158.586 203.361,148.133 196.731,141.289 198.964 M203.293 199.600 C 203.295 201.365,203.891 203.988,203.930 202.400 C 203.943 201.850,203.805 200.680,203.623 199.800 L 203.292 198.200 203.293 199.600 M204.028 204.200 C 203.915 205.050,206.196 219.359,206.332 218.657 C 206.411 218.248,206.075 215.368,205.587 212.257 C 204.650 206.298,204.116 203.534,204.028 204.200 M278.534 208.400 C 278.534 210.050,278.605 210.725,278.691 209.900 C 278.778 209.075,278.778 207.725,278.691 206.900 C 278.605 206.075,278.534 206.750,278.534 208.400 M176.914 210.600 C 176.917 211.700,176.995 212.103,177.087 211.495 C 177.179 210.886,177.177 209.986,177.082 209.495 C 176.987 209.003,176.911 209.500,176.914 210.600 M278.067 212.601 C 277.299 226.320,263.172 239.185,247.400 240.529 C 246.268 240.626,246.502 240.683,248.200 240.727 C 257.379 240.960,268.695 233.891,274.330 224.403 C 276.420 220.884,278.499 214.789,278.286 212.807 C 278.146 211.507,278.129 211.491,278.067 212.601 M176.118 215.611 C 175.857 217.035,175.531 218.650,175.394 219.200 C 175.214 219.924,175.251 220.034,175.528 219.600 C 176.075 218.744,176.918 214.709,176.742 213.793 C 176.660 213.369,176.379 214.186,176.118 215.611 M206.495 220.800 C 206.495 221.570,206.632 222.740,206.800 223.400 L 207.105 224.600 207.105 223.200 C 207.105 222.430,206.968 221.260,206.800 220.600 L 206.495 219.400 206.495 220.800 M173.646 223.413 C 170.283 230.889,163.178 237.447,155.200 240.437 C 153.550 241.055,152.507 241.570,152.881 241.581 C 155.943 241.668,165.196 235.848,168.800 231.568 C 172.095 227.655,175.489 221.864,175.125 220.776 C 175.056 220.571,174.391 221.758,173.646 223.413 M189.686 223.600 C 189.683 224.370,189.824 225.450,190.000 226.000 C 190.450 227.404,190.465 225.937,190.023 223.800 L 189.692 222.200 189.686 223.600 M207.295 226.000 C 207.295 226.770,207.432 227.940,207.600 228.600 L 207.905 229.800 207.905 228.400 C 207.905 227.630,207.768 226.460,207.600 225.800 L 207.295 224.600 207.295 226.000 M190.440 228.633 C 190.462 229.495,190.633 230.650,190.821 231.200 C 191.042 231.848,191.080 231.355,190.931 229.800 C 190.663 227.020,190.382 226.351,190.440 228.633 M208.252 232.200 C 208.596 235.915,210.315 245.959,210.360 244.520 C 210.382 243.816,210.232 242.376,210.026 241.320 C 209.821 240.264,209.435 237.870,209.169 236.000 C 208.499 231.303,207.962 229.077,208.252 232.200 M191.237 233.480 C 191.217 234.184,191.368 235.624,191.574 236.680 C 191.779 237.736,192.165 240.130,192.431 242.000 C 193.071 246.487,193.511 248.543,193.545 247.200 C 193.559 246.650,193.054 243.050,192.422 239.200 C 191.791 235.350,191.257 232.776,191.237 233.480 M137.600 242.000 C 137.930 242.213,138.740 242.373,139.400 242.354 C 140.576 242.321,140.580 242.314,139.600 242.000 C 138.070 241.510,136.842 241.510,137.600 242.000 M149.200 242.000 L 147.800 242.295 149.200 242.319 C 149.970 242.333,150.960 242.189,151.400 242.000 L 152.200 241.656 151.400 241.681 C 150.960 241.694,149.970 241.838,149.200 242.000 M142.711 242.693 C 143.651 242.778,145.091 242.777,145.911 242.691 C 146.730 242.605,145.960 242.536,144.200 242.537 C 142.440 242.539,141.770 242.609,142.711 242.693 M210.400 246.505 C 210.400 246.856,210.857 250.081,211.416 253.671 C 215.322 278.781,215.377 279.184,214.950 279.606 C 214.758 279.796,213.700 280.138,212.600 280.365 L 210.600 280.778 212.769 280.600 C 216.157 280.321,216.108 281.257,213.573 265.000 C 213.300 263.245,212.369 256.999,211.162 248.824 C 210.799 246.363,210.400 245.150,210.400 246.505 M193.642 249.354 C 193.599 250.522,194.204 254.633,194.795 257.200 C 195.441 260.004,195.186 256.681,194.428 252.400 C 194.018 250.090,193.664 248.719,193.642 249.354 M195.295 260.000 C 195.295 260.770,195.432 261.940,195.600 262.600 L 195.905 263.800 195.905 262.400 C 195.905 261.630,195.768 260.460,195.600 259.800 L 195.295 258.600 195.295 260.000 M196.093 265.400 C 196.094 266.280,196.232 267.540,196.400 268.200 L 196.705 269.400 196.730 268.200 C 196.743 267.540,196.605 266.280,196.423 265.400 L 196.092 263.800 196.093 265.400 M196.863 270.400 C 196.854 270.950,196.995 272.120,197.177 273.000 L 197.508 274.600 197.514 273.000 C 197.517 272.120,197.376 270.950,197.200 270.400 L 196.880 269.400 196.863 270.400 M197.600 275.317 C 197.600 277.643,198.573 282.063,199.151 282.361 C 199.538 282.561,201.975 282.333,205.200 281.793 C 211.792 280.690,211.567 280.544,204.698 281.469 C 198.709 282.275,198.959 282.404,198.374 278.188 C 197.957 275.186,197.600 273.862,197.600 275.317 " stroke="none" fill="#9d9d9d" fill-rule="evenodd"></path><path id="path3" d="M192.825 139.038 C 193.277 139.177,193.594 140.245,193.974 142.915 C 194.633 147.551,195.112 149.807,195.138 148.400 C 195.194 145.344,193.751 139.003,192.982 138.925 C 192.499 138.876,192.439 138.919,192.825 139.038 M187.700 139.876 C 188.085 139.976,188.715 139.976,189.100 139.876 C 189.485 139.775,189.170 139.693,188.400 139.693 C 187.630 139.693,187.315 139.775,187.700 139.876 M183.400 140.400 L 181.800 140.686 183.200 140.703 C 183.970 140.713,185.050 140.576,185.600 140.400 C 186.885 139.988,185.699 139.988,183.400 140.400 M179.000 141.085 C 177.643 141.412,177.613 141.669,178.375 146.403 C 178.782 148.931,179.135 150.538,179.158 149.973 C 179.181 149.409,179.035 147.969,178.834 146.773 C 177.912 141.310,177.830 141.724,179.931 141.285 C 180.959 141.070,181.350 140.894,180.800 140.894 C 180.250 140.893,179.440 140.979,179.000 141.085 M195.240 150.633 C 195.262 151.275,195.433 152.250,195.620 152.800 C 195.849 153.474,195.884 153.149,195.728 151.800 C 195.469 149.550,195.179 148.859,195.240 150.633 M179.478 153.513 C 179.604 154.894,179.851 156.604,180.028 157.313 C 180.237 158.149,180.270 157.721,180.122 156.087 C 179.996 154.706,179.749 152.996,179.572 152.287 C 179.363 151.451,179.330 151.879,179.478 153.513 M196.028 156.033 C 196.044 156.785,196.220 157.760,196.420 158.200 C 196.665 158.739,196.705 158.346,196.541 157.000 C 196.251 154.619,195.989 154.124,196.028 156.033 M180.447 160.033 C 180.473 160.785,180.641 161.940,180.820 162.600 C 181.035 163.389,181.070 162.978,180.923 161.400 C 180.677 158.755,180.373 157.881,180.447 160.033 M196.655 160.400 C 197.206 163.589,197.593 164.688,197.368 162.421 C 197.249 161.223,196.986 159.963,196.783 159.621 C 196.534 159.203,196.493 159.457,196.655 160.400 M181.293 165.400 C 181.294 166.060,181.432 167.140,181.600 167.800 C 182.023 169.463,182.042 167.826,181.623 165.800 C 181.345 164.455,181.292 164.391,181.293 165.400 M197.669 166.000 C 197.656 166.550,197.795 167.720,197.977 168.600 C 198.189 169.626,198.316 169.841,198.331 169.200 C 198.344 168.650,198.205 167.480,198.023 166.600 C 197.811 165.574,197.684 165.359,197.669 166.000 M182.070 170.000 C 182.057 170.550,182.195 171.720,182.377 172.600 L 182.708 174.200 182.707 172.800 C 182.705 171.035,182.109 168.412,182.070 170.000 M198.470 171.400 C 198.457 171.840,198.595 172.920,198.777 173.800 C 199.055 175.145,199.108 175.209,199.107 174.200 C 199.105 172.799,198.508 170.170,198.470 171.400 M182.876 175.200 C 182.867 175.750,183.003 177.010,183.180 178.000 C 183.420 179.350,183.507 179.500,183.527 178.600 C 183.542 177.940,183.405 176.680,183.223 175.800 C 183.016 174.798,182.886 174.574,182.876 175.200 M199.293 176.600 C 199.294 177.260,199.432 178.340,199.600 179.000 C 200.023 180.663,200.042 179.026,199.623 177.000 C 199.345 175.655,199.292 175.591,199.293 176.600 M249.000 179.174 C 256.782 179.724,261.962 181.685,267.372 186.129 C 269.961 188.255,274.400 193.704,274.400 194.756 C 274.400 194.916,274.673 195.396,275.007 195.824 C 276.301 197.480,274.657 194.239,272.865 191.600 C 267.441 183.613,259.345 179.302,249.200 179.000 L 244.600 178.863 249.000 179.174 M242.500 179.476 C 242.885 179.576,243.515 179.576,243.900 179.476 C 244.285 179.375,243.970 179.293,243.200 179.293 C 242.430 179.293,242.115 179.375,242.500 179.476 M239.600 180.018 C 239.162 180.315,239.324 180.352,240.200 180.156 C 241.671 179.827,241.990 179.598,240.967 179.606 C 240.545 179.609,239.930 179.795,239.600 180.018 M183.877 182.200 C 184.000 183.520,184.168 184.675,184.250 184.767 C 184.518 185.064,184.315 182.234,183.980 181.000 C 183.765 180.211,183.730 180.622,183.877 182.200 M146.096 180.868 C 146.373 181.044,147.680 181.176,149.000 181.162 C 151.920 181.131,151.490 180.913,148.096 180.703 C 146.720 180.618,145.820 180.692,146.096 180.868 M138.819 181.649 C 136.013 182.402,130.682 184.777,129.800 185.667 C 129.580 185.889,130.840 185.355,132.600 184.481 C 136.203 182.691,139.400 181.685,142.972 181.219 C 145.219 180.925,145.266 180.899,143.600 180.875 C 142.610 180.860,140.458 181.209,138.819 181.649 M153.677 181.785 C 160.666 183.583,169.436 189.923,171.807 194.892 C 172.150 195.611,172.778 196.830,173.202 197.600 C 174.218 199.445,175.541 203.796,175.964 206.685 C 176.222 208.447,176.314 208.660,176.351 207.575 C 176.713 197.020,164.018 182.724,153.113 181.407 C 151.639 181.228,151.717 181.281,153.677 181.785 M200.040 182.233 C 200.062 182.875,200.233 183.850,200.420 184.400 C 200.649 185.074,200.684 184.749,200.528 183.400 C 200.269 181.150,199.979 180.459,200.040 182.233 M233.689 182.497 C 227.234 185.766,217.060 197.802,218.110 200.927 C 218.198 201.187,218.487 200.741,218.754 199.935 C 221.004 193.135,227.331 186.113,234.412 182.557 C 235.505 182.007,236.400 181.477,236.400 181.379 C 236.400 181.121,236.435 181.107,233.689 182.497 M184.470 185.800 C 184.457 186.240,184.595 187.320,184.777 188.200 C 185.055 189.545,185.108 189.609,185.107 188.600 C 185.105 187.199,184.508 184.570,184.470 185.800 M126.840 187.877 C 124.067 190.303,121.078 193.478,119.813 195.342 C 118.519 197.249,118.513 197.603,119.800 196.073 C 120.350 195.419,120.800 194.713,120.800 194.503 C 120.800 194.042,127.493 187.523,128.606 186.901 C 129.039 186.658,129.295 186.362,129.176 186.242 C 129.056 186.123,128.005 186.858,126.840 187.877 M200.893 187.400 C 200.894 188.060,201.032 189.140,201.200 189.800 C 201.623 191.463,201.642 189.826,201.223 187.800 C 200.945 186.455,200.892 186.391,200.893 187.400 M185.485 192.800 C 185.607 194.230,185.772 195.475,185.853 195.567 C 186.120 195.870,185.911 192.622,185.585 191.400 C 185.382 190.644,185.346 191.162,185.485 192.800 M201.647 192.433 C 201.673 193.185,201.841 194.340,202.020 195.000 C 202.235 195.789,202.270 195.378,202.123 193.800 C 201.877 191.155,201.573 190.281,201.647 192.433 M186.063 196.600 C 186.054 197.040,186.195 198.120,186.377 199.000 L 186.708 200.600 186.714 199.200 C 186.717 198.430,186.576 197.350,186.400 196.800 C 186.141 195.991,186.077 195.953,186.063 196.600 M243.873 196.343 C 243.473 196.501,244.669 196.623,246.531 196.615 C 248.393 196.607,249.710 196.468,249.458 196.306 C 248.879 195.935,244.840 195.961,243.873 196.343 M202.469 197.600 C 202.456 198.150,202.595 199.320,202.777 200.200 C 202.989 201.226,203.116 201.441,203.131 200.800 C 203.144 200.250,203.005 199.080,202.823 198.200 C 202.611 197.174,202.484 196.959,202.469 197.600 M241.000 197.424 C 234.699 200.678,232.043 208.254,234.966 214.638 C 236.584 218.173,242.611 223.330,244.419 222.727 C 244.688 222.637,244.182 222.324,243.294 222.031 C 232.303 218.404,231.090 202.771,241.400 197.630 C 242.280 197.191,242.820 196.826,242.600 196.818 C 242.380 196.811,241.660 197.084,241.000 197.424 M252.200 197.754 C 253.300 198.274,255.055 199.565,256.100 200.623 C 257.145 201.682,258.000 202.352,258.000 202.113 C 258.000 201.533,253.691 197.894,252.281 197.284 C 250.235 196.399,250.167 196.792,252.200 197.754 M275.602 197.233 C 275.601 197.582,275.735 198.001,275.900 198.166 C 276.065 198.331,276.418 199.126,276.684 199.933 C 277.166 201.392,277.167 201.393,276.947 200.073 C 276.693 198.555,275.606 196.260,275.602 197.233 M117.800 198.800 C 117.438 199.501,117.226 200.159,117.329 200.262 C 117.432 200.365,117.806 199.869,118.160 199.160 C 118.514 198.451,118.726 197.793,118.631 197.698 C 118.536 197.603,118.162 198.099,117.800 198.800 M143.900 198.289 C 144.615 198.378,145.785 198.378,146.500 198.289 C 147.215 198.201,146.630 198.128,145.200 198.128 C 143.770 198.128,143.185 198.201,143.900 198.289 M149.244 198.954 C 151.772 199.944,153.932 201.537,155.589 203.634 C 156.475 204.755,157.200 205.495,157.200 205.279 C 157.200 203.760,151.457 199.111,148.973 198.620 C 147.985 198.424,148.027 198.477,149.244 198.954 M137.145 200.605 C 135.933 201.264,133.412 204.608,133.052 206.034 C 132.892 206.669,133.009 206.564,133.394 205.729 C 133.715 205.030,134.958 203.455,136.155 202.229 C 137.352 201.003,138.301 200.007,138.265 200.016 C 138.229 200.025,137.725 200.290,137.145 200.605 M186.887 202.000 C 186.891 202.550,187.032 203.540,187.200 204.200 L 187.505 205.400 187.513 204.200 C 187.517 203.540,187.376 202.550,187.200 202.000 L 186.880 201.000 186.887 202.000 M217.473 202.153 C 217.323 202.545,217.211 203.166,217.225 203.533 C 217.242 203.975,217.381 203.874,217.637 203.234 C 217.849 202.703,217.961 202.082,217.885 201.854 C 217.809 201.627,217.624 201.761,217.473 202.153 M277.481 203.600 C 277.606 204.810,277.774 205.875,277.854 205.967 C 278.135 206.287,277.917 203.391,277.587 202.400 C 277.371 201.754,277.334 202.180,277.481 203.600 M203.269 202.800 C 203.256 203.350,203.395 204.520,203.577 205.400 C 203.789 206.426,203.916 206.641,203.931 206.000 C 203.944 205.450,203.805 204.280,203.623 203.400 C 203.411 202.374,203.284 202.159,203.269 202.800 M258.588 203.838 C 258.962 204.409,259.510 205.534,259.806 206.338 C 260.123 207.199,260.355 207.486,260.372 207.035 C 260.400 206.270,258.569 202.800,258.137 202.800 C 258.011 202.800,258.214 203.267,258.588 203.838 M115.405 206.118 C 115.040 207.758,114.816 209.708,114.907 210.450 C 115.067 211.763,115.074 211.756,115.142 210.200 C 115.180 209.320,115.483 207.449,115.815 206.042 C 116.146 204.635,116.339 203.406,116.243 203.310 C 116.147 203.214,115.770 204.478,115.405 206.118 M216.893 205.600 C 216.893 206.370,216.975 206.685,217.076 206.300 C 217.176 205.915,217.176 205.285,217.076 204.900 C 216.975 204.515,216.893 204.830,216.893 205.600 M157.820 207.387 C 158.139 208.150,158.400 209.129,158.400 209.564 C 158.400 209.998,158.561 210.452,158.757 210.573 C 159.175 210.832,158.565 207.856,157.972 206.748 C 157.303 205.497,157.204 205.912,157.820 207.387 M187.695 207.200 C 187.695 207.750,187.832 208.740,188.000 209.400 C 188.272 210.470,188.305 210.492,188.305 209.600 C 188.305 209.050,188.168 208.060,188.000 207.400 C 187.728 206.330,187.695 206.308,187.695 207.200 M278.120 208.800 C 278.120 210.010,278.195 210.505,278.287 209.900 C 278.378 209.295,278.378 208.305,278.287 207.700 C 278.195 207.095,278.120 207.590,278.120 208.800 M132.243 207.833 C 131.921 208.671,131.983 213.216,132.328 214.085 C 132.478 214.462,132.600 213.067,132.600 210.985 C 132.600 206.888,132.601 206.899,132.243 207.833 M204.064 208.200 C 204.056 208.860,204.379 211.200,204.781 213.400 C 205.183 215.600,205.518 216.950,205.526 216.400 C 205.534 215.850,205.211 213.510,204.809 211.200 C 204.407 208.890,204.071 207.540,204.064 208.200 M216.540 210.400 C 216.540 212.270,216.609 213.035,216.693 212.100 C 216.777 211.165,216.777 209.635,216.693 208.700 C 216.609 207.765,216.540 208.530,216.540 210.400 M260.514 209.800 C 260.517 210.900,260.595 211.303,260.687 210.695 C 260.779 210.086,260.777 209.186,260.682 208.695 C 260.587 208.203,260.511 208.700,260.514 209.800 M277.433 213.233 C 277.283 214.366,277.241 215.374,277.339 215.472 C 277.437 215.571,277.645 214.728,277.800 213.600 C 277.955 212.472,277.998 211.464,277.894 211.361 C 277.791 211.258,277.584 212.100,277.433 213.233 M188.429 212.233 C 188.480 213.538,189.902 221.442,189.952 220.697 C 190.016 219.765,188.828 211.895,188.588 211.654 C 188.484 211.551,188.413 211.812,188.429 212.233 M175.833 214.833 C 175.683 215.966,175.641 216.974,175.739 217.072 C 175.837 217.171,176.045 216.328,176.200 215.200 C 176.355 214.072,176.398 213.064,176.294 212.961 C 176.191 212.858,175.984 213.700,175.833 214.833 M259.513 214.580 C 258.279 217.909,255.296 220.817,251.652 222.244 C 250.438 222.719,250.392 222.774,251.373 222.580 C 255.020 221.859,261.080 215.440,260.306 213.118 C 260.241 212.922,259.884 213.579,259.513 214.580 M158.451 214.400 C 158.357 216.011,156.608 219.301,155.149 220.612 C 152.517 222.978,151.979 223.330,149.901 224.048 C 148.745 224.447,148.160 224.776,148.600 224.778 C 152.394 224.798,159.322 217.575,158.678 214.270 C 158.526 213.487,158.503 213.500,158.451 214.400 M114.834 215.321 C 114.790 216.247,116.027 221.707,116.233 221.500 C 116.319 221.415,116.047 219.827,115.628 217.972 C 115.210 216.117,114.852 214.924,114.834 215.321 M133.059 216.000 C 133.332 217.088,134.800 219.177,134.800 218.478 C 134.800 218.241,134.615 217.933,134.389 217.793 C 134.162 217.653,133.714 216.968,133.393 216.269 C 132.967 215.344,132.876 215.271,133.059 216.000 M276.229 218.029 C 275.353 220.707,275.631 220.986,276.571 218.371 C 276.969 217.266,277.206 216.273,277.098 216.165 C 276.990 216.057,276.599 216.896,276.229 218.029 M217.222 217.229 C 217.196 217.967,218.426 221.707,218.628 221.506 C 218.703 221.430,218.423 220.295,218.004 218.984 C 217.586 217.673,217.233 216.883,217.222 217.229 M205.669 218.400 C 205.656 218.950,205.795 220.120,205.977 221.000 C 206.189 222.026,206.316 222.241,206.331 221.600 C 206.344 221.050,206.205 219.880,206.023 219.000 C 205.811 217.974,205.684 217.759,205.669 218.400 M136.783 220.900 C 138.441 222.666,138.800 222.984,138.800 222.683 C 138.800 222.619,137.945 221.764,136.900 220.783 L 135.000 219.000 136.783 220.900 M174.315 220.610 C 174.192 221.045,173.969 221.760,173.820 222.200 C 173.671 222.640,173.842 222.494,174.200 221.876 C 174.558 221.258,174.781 220.542,174.695 220.286 C 174.610 220.030,174.439 220.176,174.315 220.610 M274.197 222.900 C 273.599 224.055,272.861 225.284,272.555 225.631 C 272.250 225.979,272.000 226.408,272.000 226.585 C 272.000 227.291,274.674 223.182,275.310 221.500 C 275.830 220.125,275.266 220.835,274.197 222.900 M190.063 222.400 C 190.052 222.950,190.371 225.290,190.773 227.600 C 191.174 229.910,191.518 231.350,191.537 230.800 C 191.556 230.250,191.237 227.910,190.828 225.600 C 190.418 223.290,190.074 221.850,190.063 222.400 M116.409 222.251 C 116.396 222.922,117.617 225.716,117.831 225.503 C 117.932 225.402,117.655 224.527,117.216 223.560 C 116.777 222.592,116.414 222.003,116.409 222.251 M218.964 222.742 C 219.081 222.931,219.366 223.586,219.599 224.198 C 219.832 224.810,220.121 225.213,220.241 225.093 C 220.478 224.856,219.315 222.400,218.966 222.400 C 218.849 222.400,218.848 222.554,218.964 222.742 M246.707 223.090 C 247.426 223.179,248.506 223.177,249.107 223.086 C 249.708 222.995,249.120 222.922,247.800 222.924 C 246.480 222.926,245.988 223.001,246.707 223.090 M172.582 224.581 C 171.474 226.915,169.360 229.657,166.110 232.974 C 163.314 235.827,165.040 234.565,168.250 231.409 C 170.056 229.633,174.097 223.200,173.406 223.200 C 173.313 223.200,172.943 223.821,172.582 224.581 M141.008 224.012 C 141.329 224.533,145.266 225.297,146.600 225.099 C 147.607 224.949,147.537 224.910,146.164 224.860 C 145.264 224.827,143.689 224.548,142.664 224.239 C 141.640 223.931,140.894 223.829,141.008 224.012 M206.836 225.954 C 206.800 226.904,207.382 230.758,208.020 233.800 C 208.280 235.040,208.303 234.860,208.121 233.000 C 207.812 229.836,206.882 224.738,206.836 225.954 M221.537 227.436 C 222.222 228.550,223.192 229.805,223.691 230.227 L 224.600 230.994 223.747 229.997 C 223.278 229.449,222.614 228.447,222.273 227.771 C 221.932 227.095,221.347 226.288,220.972 225.977 C 220.598 225.666,220.852 226.323,221.537 227.436 M118.645 227.300 C 119.416 228.806,121.967 232.023,123.877 233.899 C 126.154 236.135,125.321 234.850,122.563 231.871 C 121.112 230.304,119.579 228.342,119.155 227.511 C 118.731 226.680,118.293 226.000,118.182 226.000 C 118.070 226.000,118.279 226.585,118.645 227.300 M269.198 229.707 C 267.766 231.078,265.696 232.977,264.598 233.927 C 263.215 235.122,263.031 235.371,264.000 234.736 C 265.357 233.847,272.403 227.226,272.000 227.218 C 271.890 227.216,270.629 228.336,269.198 229.707 M225.600 232.125 C 225.600 232.223,226.455 232.991,227.500 233.832 C 228.545 234.672,229.040 234.945,228.600 234.437 C 227.774 233.483,225.600 231.808,225.600 232.125 M192.093 236.000 C 192.093 236.770,192.175 237.085,192.276 236.700 C 192.376 236.315,192.376 235.685,192.276 235.300 C 192.175 234.915,192.093 235.230,192.093 236.000 M229.600 235.371 C 229.600 235.451,230.500 235.987,231.600 236.562 C 233.833 237.729,234.315 237.698,232.300 236.517 C 230.881 235.685,229.600 235.141,229.600 235.371 M208.440 237.033 C 208.462 237.895,208.627 239.050,208.807 239.600 C 209.011 240.221,209.051 239.691,208.912 238.200 C 208.654 235.421,208.382 234.749,208.440 237.033 M261.200 236.190 C 260.650 236.508,259.840 236.944,259.400 237.159 C 258.960 237.374,258.815 237.561,259.077 237.575 C 259.564 237.601,262.400 236.052,262.400 235.760 C 262.400 235.520,262.290 235.560,261.200 236.190 M127.192 236.730 C 128.408 237.726,132.026 239.707,132.239 239.494 C 132.325 239.409,131.631 238.936,130.697 238.443 C 129.764 237.951,128.370 237.181,127.600 236.733 C 126.200 235.919,126.200 235.919,127.192 236.730 M162.180 236.354 C 160.491 237.926,154.292 240.510,150.000 241.431 C 147.533 241.961,147.505 241.979,149.460 241.786 C 153.120 241.425,161.666 237.911,162.614 236.377 C 162.908 235.902,162.679 235.890,162.180 236.354 M256.294 238.285 C 255.245 238.635,254.467 239.000,254.564 239.097 C 254.774 239.307,257.636 238.374,258.180 237.918 C 258.671 237.507,258.565 237.528,256.294 238.285 M236.400 238.749 C 236.730 238.946,237.630 239.220,238.400 239.356 C 239.344 239.523,239.540 239.492,239.000 239.261 C 237.763 238.732,235.690 238.323,236.400 238.749 M192.873 240.600 C 192.858 241.260,192.995 242.520,193.177 243.400 C 193.613 245.506,193.650 243.614,193.220 241.200 C 192.980 239.850,192.893 239.700,192.873 240.600 M241.442 240.077 C 243.449 240.434,248.951 240.434,250.958 240.077 C 251.840 239.920,249.774 239.800,246.200 239.800 C 242.626 239.800,240.560 239.920,241.442 240.077 M133.600 240.164 C 133.600 240.400,137.767 241.608,138.462 241.573 C 138.758 241.559,138.247 241.311,137.326 241.023 C 134.862 240.253,133.600 239.962,133.600 240.164 M209.274 241.800 C 209.267 242.460,209.498 244.350,209.787 246.000 C 210.077 247.650,210.319 248.460,210.326 247.800 C 210.333 247.140,210.102 245.250,209.813 243.600 C 209.523 241.950,209.281 241.140,209.274 241.800 M143.100 242.289 C 143.815 242.378,144.985 242.378,145.700 242.289 C 146.415 242.201,145.830 242.128,144.400 242.128 C 142.970 242.128,142.385 242.201,143.100 242.289 M193.693 246.400 C 193.693 247.170,193.775 247.485,193.876 247.100 C 193.976 246.715,193.976 246.085,193.876 245.700 C 193.775 245.315,193.693 245.630,193.693 246.400 M194.493 251.600 C 194.493 252.370,194.575 252.685,194.676 252.300 C 194.776 251.915,194.776 251.285,194.676 250.900 C 194.575 250.515,194.493 250.830,194.493 251.600 M210.847 252.833 C 210.873 253.585,211.041 254.740,211.220 255.400 C 211.435 256.189,211.470 255.778,211.323 254.200 C 211.077 251.555,210.773 250.681,210.847 252.833 M195.077 255.400 C 195.200 256.720,195.368 257.875,195.450 257.967 C 195.718 258.264,195.515 255.434,195.180 254.200 C 194.965 253.411,194.930 253.822,195.077 255.400 M211.686 258.000 C 211.683 258.770,211.824 259.850,212.000 260.400 C 212.450 261.804,212.465 260.337,212.023 258.200 L 211.692 256.600 211.686 258.000 M195.879 260.600 C 196.188 263.764,197.118 268.862,197.164 267.646 C 197.200 266.696,196.618 262.842,195.980 259.800 C 195.720 258.560,195.697 258.740,195.879 260.600 M212.486 263.400 C 212.483 264.280,212.624 265.450,212.800 266.000 L 213.120 267.000 213.137 266.000 C 213.146 265.450,213.005 264.280,212.823 263.400 L 212.492 261.800 212.486 263.400 M213.293 268.200 C 213.294 268.860,213.432 269.940,213.600 270.600 C 214.023 272.263,214.042 270.626,213.623 268.600 C 213.345 267.255,213.292 267.191,213.293 268.200 M197.693 272.400 C 197.693 273.170,197.775 273.485,197.876 273.100 C 197.976 272.715,197.976 272.085,197.876 271.700 C 197.775 271.315,197.693 271.630,197.693 272.400 M214.076 273.200 C 214.067 273.750,214.203 275.010,214.380 276.000 C 214.620 277.350,214.707 277.500,214.727 276.600 C 214.742 275.940,214.605 274.680,214.423 273.800 C 214.216 272.798,214.086 272.574,214.076 273.200 M198.093 275.200 C 198.093 275.970,198.175 276.285,198.276 275.900 C 198.376 275.515,198.376 274.885,198.276 274.500 C 198.175 274.115,198.093 274.430,198.093 275.200 M198.644 278.600 C 199.009 282.226,199.436 282.519,203.000 281.594 C 203.917 281.356,203.638 281.296,201.820 281.341 L 199.441 281.400 198.942 279.000 C 198.457 276.667,198.449 276.656,198.644 278.600 M214.846 278.700 C 214.809 279.433,214.559 279.605,213.500 279.628 C 212.785 279.644,211.840 279.812,211.400 280.003 C 210.883 280.227,211.308 280.269,212.600 280.123 C 214.901 279.862,215.350 279.577,215.084 278.542 C 214.927 277.931,214.885 277.959,214.846 278.700 M207.861 280.419 C 206.794 280.598,205.804 280.870,205.661 281.024 C 205.270 281.441,209.339 280.793,209.780 280.367 C 209.989 280.165,210.079 280.021,209.980 280.047 C 209.881 280.073,208.927 280.241,207.861 280.419 " stroke="none" fill="#747474" fill-rule="evenodd"></path><path id="path4" d="M147.105 180.683 C 147.602 180.779,148.322 180.775,148.705 180.675 C 149.087 180.575,148.680 180.496,147.800 180.501 C 146.920 180.505,146.607 180.587,147.105 180.683 M167.600 189.400 C 168.346 190.170,169.047 190.800,169.157 190.800 C 169.267 190.800,168.746 190.170,168.000 189.400 C 167.254 188.630,166.553 188.000,166.443 188.000 C 166.333 188.000,166.854 188.630,167.600 189.400 M122.975 191.300 L 121.800 192.600 123.100 191.425 C 123.815 190.779,124.400 190.194,124.400 190.125 C 124.400 189.816,124.070 190.088,122.975 191.300 M154.000 202.200 C 154.746 202.970,155.447 203.600,155.557 203.600 C 155.667 203.600,155.146 202.970,154.400 202.200 C 153.654 201.430,152.953 200.800,152.843 200.800 C 152.733 200.800,153.254 201.430,154.000 202.200 M158.509 212.000 C 158.509 212.990,158.587 213.395,158.682 212.900 C 158.778 212.405,158.778 211.595,158.682 211.100 C 158.587 210.605,158.509 211.010,158.509 212.000 M176.501 211.800 C 176.505 212.680,176.587 212.993,176.683 212.495 C 176.779 211.998,176.775 211.278,176.675 210.895 C 176.575 210.513,176.496 210.920,176.501 211.800 M114.493 212.000 C 114.493 212.770,114.575 213.085,114.676 212.700 C 114.776 212.315,114.776 211.685,114.676 211.300 C 114.575 210.915,114.493 211.230,114.493 212.000 M237.200 217.725 C 237.200 217.794,237.785 218.379,238.500 219.025 L 239.800 220.200 238.625 218.900 C 237.530 217.688,237.200 217.416,237.200 217.725 M268.378 231.100 L 267.000 232.600 268.500 231.222 C 269.896 229.938,270.184 229.600,269.878 229.600 C 269.812 229.600,269.137 230.275,268.378 231.100 " stroke="none" fill="#7c7c7c" fill-rule="evenodd"></path></g></svg>